<svg width="204" height="306" viewBox="0 0 204 306" fill="none" xmlns="http://www.w3.org/2000/svg">
<path d="M0 30.6C0 13.7001 13.7001 0 30.6 0H173.4C190.3 0 204 13.7001 204 30.6V275.4C204 292.3 190.3 306 173.4 306H30.6C13.7001 306 0 292.3 0 275.4V30.6Z" fill="#171717"/>
<path d="M2.04 32.232C2.04 15.5574 15.4661 2.04 32.028 2.04H171.972C188.534 2.04 201.96 15.5574 201.96 32.232V273.768C201.96 290.443 188.534 303.96 171.972 303.96H32.028C15.4661 303.96 2.04 290.443 2.04 273.768V32.232Z" fill="#F3F3F3"/>
<path d="M17.034 37.264C17.034 26.1476 25.9847 17.136 37.026 17.136H166.974C178.015 17.136 186.966 26.1476 186.966 37.264V268.736C186.966 279.852 178.015 288.864 166.974 288.864H37.026C25.9847 288.864 17.034 279.852 17.034 268.736V37.264Z" fill="#171717"/>
<path d="M173.429 153C173.429 172.724 157.439 188.714 137.714 188.714C117.99 188.714 102 172.724 102 153C102 133.276 117.99 117.286 137.714 117.286C157.439 117.286 173.429 133.276 173.429 153ZM112.714 153C112.714 166.807 123.907 178 137.714 178C151.521 178 162.714 166.807 162.714 153C162.714 139.193 151.521 128 137.714 128C123.907 128 112.714 139.193 112.714 153Z" fill="#FF5249"/>
<path d="M152.507 203.508C138.56 217.455 115.947 217.455 102 203.508C88.0527 189.56 88.0527 166.947 102 153C115.947 139.053 138.56 139.053 152.507 153C166.455 166.947 166.455 189.56 152.507 203.508ZM109.576 160.576C99.813 170.339 99.813 186.168 109.576 195.931C119.339 205.695 135.168 205.695 144.931 195.931C154.694 186.168 154.694 170.339 144.931 160.576C135.168 150.813 119.339 150.813 109.576 160.576Z" fill="#53A5DC"/>
<path d="M102 224.429C82.2757 224.429 66.2859 208.439 66.2859 188.714C66.2859 168.99 82.2755 153 102 153C121.724 153 137.714 168.99 137.714 188.714C137.714 208.439 121.725 224.429 102 224.429ZM102 163.714C88.193 163.714 77.0002 174.907 77.0002 188.714C77.0002 202.521 88.193 213.714 102 213.714C115.807 213.714 127 202.521 127 188.714C127 174.907 115.807 163.714 102 163.714Z" fill="#34C838"/>
<path d="M51.4925 203.508C37.5452 189.56 37.5452 166.947 51.4925 153C65.4398 139.053 88.0527 139.053 102 153C115.947 166.947 115.947 189.56 102 203.508C88.0527 217.455 65.4398 217.455 51.4925 203.508ZM94.4239 160.576C84.6609 150.813 68.8318 150.813 59.0686 160.576C49.3055 170.339 49.3055 186.168 59.0686 195.932C68.8318 205.695 84.6609 205.695 94.4239 195.932C104.187 186.168 104.187 170.339 94.4239 160.576Z" fill="#F4D84B"/>
<path d="M102 153C102 172.724 86.0103 188.714 66.2859 188.714C46.5614 188.714 30.5714 172.724 30.5714 153C30.5714 133.276 46.5612 117.286 66.2857 117.286C86.0102 117.286 102 133.276 102 153ZM41.2857 153C41.2857 166.807 52.4786 178 66.2857 178C80.0928 178 91.2857 166.807 91.2857 153C91.2857 139.193 80.0928 128 66.2857 128C52.4786 128 41.2857 139.193 41.2857 153Z" fill="#FF5249"/>
<path d="M102 153C88.0527 166.947 65.4398 166.947 51.4925 153C37.5452 139.053 37.545 116.44 51.4923 102.492C65.4396 88.5451 88.0527 88.5451 102 102.492C115.947 116.44 115.947 139.053 102 153ZM59.0684 110.069C49.3053 119.832 49.3053 135.661 59.0684 145.424C68.8316 155.187 84.6607 155.187 94.4237 145.424C104.187 135.661 104.187 119.832 94.4237 110.069C84.6607 100.305 68.8316 100.305 59.0684 110.069Z" fill="#53A5DC"/>
<path d="M102 153C82.2755 153 66.2857 137.01 66.2857 117.286C66.2857 97.5613 82.2757 81.5714 102 81.5714C121.725 81.5714 137.714 97.5613 137.714 117.286C137.714 137.01 121.724 153 102 153ZM102 92.2857C88.193 92.2857 77.0002 103.479 77.0002 117.286C77.0002 131.093 88.193 142.286 102 142.286C115.807 142.286 127 131.093 127 117.286C127 103.479 115.807 92.2857 102 92.2857Z" fill="#34C838"/>
<path d="M102 153C88.0527 139.053 88.0527 116.44 102 102.492C115.947 88.5451 138.56 88.5452 152.508 102.493C166.455 116.44 166.455 139.053 152.507 153C138.56 166.947 115.947 166.947 102 153ZM144.932 110.069C135.169 100.306 119.339 100.306 109.576 110.069C99.8132 119.832 99.8132 135.661 109.576 145.424C119.339 155.187 135.168 155.187 144.932 145.424C154.695 135.661 154.695 119.832 144.932 110.069Z" fill="#F4D84B"/>
</svg>
