<svg width="204" height="306" viewBox="0 0 204 306" fill="none" xmlns="http://www.w3.org/2000/svg">
<path d="M0 30.6C0 13.7001 13.7001 0 30.6 0H173.4C190.3 0 204 13.7001 204 30.6V275.4C204 292.3 190.3 306 173.4 306H30.6C13.7001 306 0 292.3 0 275.4V30.6Z" fill="#171717"/>
<path d="M2.04 32.232C2.04 15.5574 15.4661 2.04 32.028 2.04H171.972C188.534 2.04 201.96 15.5574 201.96 32.232V273.768C201.96 290.443 188.534 303.96 171.972 303.96H32.028C15.4661 303.96 2.04 290.443 2.04 273.768V32.232Z" fill="#F3F3F3"/>
<path d="M17.034 37.264C17.034 26.1476 25.9847 17.136 37.026 17.136H166.974C178.015 17.136 186.966 26.1476 186.966 37.264V268.736C186.966 279.852 178.015 288.864 166.974 288.864H37.026C25.9847 288.864 17.034 279.852 17.034 268.736V37.264Z" fill="#5555FF"/>
<path d="M183.24 71.2374C207.936 95.9342 191.468 152.444 146.456 197.456C101.444 242.468 44.9342 258.936 20.2374 234.24C-4.45932 209.543 12.0093 153.033 57.0211 108.021C102.033 63.0093 158.543 46.5407 183.24 71.2374Z" fill="#F3F3F3"/>
<path d="M102.39 213C93.7632 213 86.2279 210.926 79.784 206.779C73.34 202.528 69.0787 196.307 67 188.116L83.6815 180.806C85.4484 185.783 87.7869 189.36 90.6971 191.537C93.7112 193.611 97.245 194.648 101.298 194.648C105.248 194.648 108.522 193.196 111.12 190.293C113.719 187.39 115.018 183.087 115.018 177.384C115.018 170.023 112.835 165.098 108.47 162.609C104.209 160.017 98.1284 158.721 90.2294 158.721V143.479C96.8812 143.479 102.338 141.82 106.599 138.503C110.964 135.185 113.199 130.26 113.303 123.728V123.572C113.303 119.425 112.004 116.159 109.405 113.774C106.807 111.389 103.741 110.197 100.207 110.197C97.0891 110.197 94.1789 111.182 91.4766 113.152C88.7743 115.018 86.7476 117.766 85.3964 121.395L69.8062 112.53C73.2361 105.375 77.7572 100.191 83.3697 96.9769C88.9822 93.659 95.634 92 103.325 92C108.834 92 114.03 93.1924 118.915 95.5771C123.8 97.8582 127.75 101.28 130.764 105.842C133.882 110.3 135.441 115.64 135.441 121.861C135.441 128.601 133.778 134.355 130.452 139.125C127.126 143.79 122.241 147.212 115.797 149.389C122.345 151.463 127.49 155.144 131.232 160.432C135.077 165.616 137 171.993 137 179.562C137 186.509 135.389 192.522 132.167 197.603C128.945 202.58 124.684 206.416 119.383 209.112C114.186 211.704 108.522 213 102.39 213Z" fill="#5555FF"/>
<path d="M45.167 82C41.4699 82 38.2405 81.1088 35.4788 79.3265C32.7171 77.4996 30.8909 74.826 30 71.3059L37.1492 68.1645C37.9065 70.3033 38.9087 71.8406 40.1559 72.7764C41.4477 73.6675 42.9621 74.1131 44.6993 74.1131C46.392 74.1131 47.7951 73.4893 48.9087 72.2416C50.0223 70.994 50.5791 69.1448 50.5791 66.6941C50.5791 63.5304 49.6437 61.4139 47.7728 60.3445C45.9465 59.2305 43.3408 58.6735 39.9555 58.6735V52.1234C42.8062 52.1234 45.1448 51.4105 46.971 49.9846C48.8419 48.5587 49.7996 46.4422 49.8441 43.635V43.5681C49.8441 41.7858 49.2873 40.3822 48.1737 39.3573C47.0601 38.3325 45.7461 37.8201 44.2316 37.8201C42.8953 37.8201 41.6481 38.2434 40.49 39.09C39.3318 39.892 38.4632 41.0728 37.8842 42.6324L31.2027 38.8226C32.6726 35.7481 34.6102 33.5201 37.0156 32.1388C39.4209 30.7129 42.2717 30 45.5679 30C47.9287 30 50.1559 30.5124 52.2494 31.5373C54.343 32.5176 56.0356 33.988 57.3274 35.9486C58.6637 37.8646 59.3318 40.1594 59.3318 42.8329C59.3318 45.7292 58.6192 48.2022 57.1938 50.2519C55.7684 52.2571 53.6748 53.7275 50.9131 54.6632C53.7194 55.5544 55.9243 57.1362 57.5278 59.4087C59.1759 61.6367 60 64.377 60 67.6298C60 70.6153 59.3096 73.1997 57.9287 75.383C56.5479 77.5219 54.7216 79.1705 52.4499 80.329C50.2227 81.443 47.7951 82 45.167 82Z" fill="#F3F3F3"/>
<path d="M158.828 224C162.526 224 165.757 224.891 168.519 226.674C171.282 228.5 173.109 231.174 174 234.694L166.848 237.835C166.091 235.697 165.088 234.159 163.841 233.224C162.548 232.332 161.033 231.887 159.296 231.887C157.602 231.887 156.199 232.511 155.085 233.758C153.971 235.006 153.414 236.855 153.414 239.306C153.414 242.47 154.35 244.586 156.221 245.656C158.048 246.769 160.655 247.326 164.041 247.326V253.877C161.189 253.877 158.85 254.59 157.023 256.015C155.152 257.441 154.194 259.558 154.149 262.365V262.432C154.149 264.214 154.706 265.618 155.82 266.643C156.934 267.668 158.248 268.18 159.763 268.18C161.1 268.18 162.348 267.757 163.506 266.91C164.665 266.108 165.534 264.927 166.113 263.368L172.797 267.177C171.326 270.252 169.388 272.48 166.982 273.861C164.576 275.287 161.724 276 158.427 276C156.065 276 153.837 275.488 151.743 274.463C149.649 273.482 147.955 272.012 146.663 270.051C145.326 268.135 144.658 265.841 144.658 263.167C144.658 260.271 145.371 257.798 146.797 255.748C148.223 253.743 150.317 252.272 153.08 251.337C150.272 250.446 148.067 248.864 146.463 246.591C144.814 244.363 143.99 241.623 143.99 238.37C143.99 235.385 144.68 232.8 146.062 230.617C147.443 228.478 149.27 226.829 151.542 225.671C153.77 224.557 156.199 224 158.828 224Z" fill="#F3F3F3"/>
</svg>
