<svg width="204" height="306" viewBox="0 0 204 306" fill="none" xmlns="http://www.w3.org/2000/svg">
<path d="M0 30.6C0 13.7001 13.7001 0 30.6 0H173.4C190.3 0 204 13.7001 204 30.6V275.4C204 292.3 190.3 306 173.4 306H30.6C13.7001 306 0 292.3 0 275.4V30.6Z" fill="#171717"/>
<path d="M2.04 32.232C2.04 15.5574 15.4661 2.04 32.028 2.04H171.972C188.534 2.04 201.96 15.5574 201.96 32.232V273.768C201.96 290.443 188.534 303.96 171.972 303.96H32.028C15.4661 303.96 2.04 290.443 2.04 273.768V32.232Z" fill="#F3F3F3"/>
<path d="M17.034 37.264C17.034 26.1476 25.9847 17.136 37.026 17.136H166.974C178.015 17.136 186.966 26.1476 186.966 37.264V268.736C186.966 279.852 178.015 288.864 166.974 288.864H37.026C25.9847 288.864 17.034 279.852 17.034 268.736V37.264Z" fill="#5555FF"/>
<path d="M183.24 71.2374C207.936 95.9342 191.468 152.444 146.456 197.456C101.444 242.468 44.9342 258.936 20.2374 234.24C-4.45932 209.543 12.0093 153.033 57.0211 108.021C102.033 63.0093 158.543 46.5407 183.24 71.2374Z" fill="#F3F3F3"/>
<path d="M102 82L113 93L69 137C58 148 58 170 69 181L102 148L135 115L146 126V82H102Z" fill="#5555FF"/>
<path d="M102 225L91 214L135 170C146 159 146 137 135 126L69 192L58 181V225H102Z" fill="#5555FF"/>
<path d="M49 26L53.75 30.7692L34.75 49.8462C30 54.6154 30 64.1538 34.75 68.9231L63.25 40.3077L68 45.0769V26H49Z" fill="#F3F3F3"/>
<path d="M49 88L44.25 83.2308L63.25 64.1538C68 59.3846 68 49.8462 63.25 45.0769L34.75 73.6923L30 68.9231V88H49Z" fill="#F3F3F3"/>
<path d="M155.077 214L159.846 218.769L140.769 237.846C136 242.615 136 252.154 140.769 256.923L169.385 228.308L174.154 233.077V214H155.077Z" fill="#F3F3F3"/>
<path d="M155.077 276L150.308 271.231L169.385 252.154C174.154 247.385 174.154 237.846 169.385 233.077L140.769 261.692L136 256.923V276H155.077Z" fill="#F3F3F3"/>
</svg>
