<svg width="204" height="306" viewBox="0 0 204 306" fill="none" xmlns="http://www.w3.org/2000/svg">
<path d="M0 30.6C0 13.7001 13.7001 0 30.6 0H173.4C190.3 0 204 13.7001 204 30.6V275.4C204 292.3 190.3 306 173.4 306H30.6C13.7001 306 0 292.3 0 275.4V30.6Z" fill="#171717"/>
<path d="M2.04 32.232C2.04 15.5574 15.4661 2.04 32.028 2.04H171.972C188.534 2.04 201.96 15.5574 201.96 32.232V273.768C201.96 290.443 188.534 303.96 171.972 303.96H32.028C15.4661 303.96 2.04 290.443 2.04 273.768V32.232Z" fill="#F3F3F3"/>
<path d="M17.034 37.264C17.034 26.1476 25.9847 17.136 37.026 17.136H166.974C178.015 17.136 186.966 26.1476 186.966 37.264V268.736C186.966 279.852 178.015 288.864 166.974 288.864H37.026C25.9847 288.864 17.034 279.852 17.034 268.736V37.264Z" fill="#55AA55"/>
<path d="M183.24 71.2374C207.936 95.9342 191.468 152.444 146.456 197.456C101.444 242.468 44.9342 258.936 20.2374 234.24C-4.45932 209.543 12.0093 153.033 57.0211 108.021C102.033 63.0093 158.543 46.5407 183.24 71.2374Z" fill="#F3F3F3"/>
<path d="M97.707 103C124.104 103 145.99 122.299 150.034 147.557H165.933L143.433 183.02L120.933 147.557H135.759C131.901 130.093 116.33 117.029 97.707 117.029C76.1842 117.029 58.7363 134.477 58.7363 156C58.7363 177.523 76.1842 194.971 97.707 194.971C111.129 194.971 122.965 188.185 129.975 177.857L137.54 190.96C127.827 202.019 113.583 209 97.707 209C68.436 209 44.707 185.271 44.707 156C44.707 126.729 68.436 103 97.707 103Z" fill="#55AA55"/>
<path d="M56.2324 30C69.2976 30 80.1303 39.5517 82.1318 52.0527H90L78.8643 69.6055L67.7275 52.0527H75.0664C73.157 43.4094 65.45 36.9434 56.2324 36.9434C45.5797 36.9434 36.9443 45.5799 36.9443 56.2324C36.9446 66.8848 45.5799 75.5205 56.2324 75.5205C62.8756 75.5205 68.7339 72.1614 72.2031 67.0498L75.9473 73.5352C71.1396 79.0084 64.0899 82.4638 56.2324 82.4639C41.7449 82.4639 30.0003 70.7197 30 56.2324C30 41.7449 41.7447 30 56.2324 30Z" fill="#F3F3F3"/>
<path d="M147.768 276.464C134.702 276.464 123.87 266.912 121.868 254.411H114L125.136 236.858L136.272 254.411H128.934C130.843 263.054 138.55 269.52 147.768 269.521C158.42 269.521 167.056 260.884 167.056 250.231C167.055 239.579 158.42 230.943 147.768 230.943C141.124 230.943 135.266 234.302 131.797 239.414L128.053 232.929C132.86 227.455 139.91 224 147.768 224C162.255 224 174 235.744 174 250.231C174 264.719 162.255 276.464 147.768 276.464Z" fill="#F3F3F3"/>
</svg>
