<svg width="204" height="306" viewBox="0 0 204 306" fill="none" xmlns="http://www.w3.org/2000/svg">
<path d="M0 30.6C0 13.7001 13.7001 0 30.6 0H173.4C190.3 0 204 13.7001 204 30.6V275.4C204 292.3 190.3 306 173.4 306H30.6C13.7001 306 0 292.3 0 275.4V30.6Z" fill="#171717"/>
<path d="M2.04 32.232C2.04 15.5574 15.4661 2.04 32.028 2.04H171.972C188.534 2.04 201.96 15.5574 201.96 32.232V273.768C201.96 290.443 188.534 303.96 171.972 303.96H32.028C15.4661 303.96 2.04 290.443 2.04 273.768V32.232Z" fill="#F3F3F3"/>
<path d="M17.034 37.264C17.034 26.1476 25.9847 17.136 37.026 17.136H166.974C178.015 17.136 186.966 26.1476 186.966 37.264V268.736C186.966 279.852 178.015 288.864 166.974 288.864H37.026C25.9847 288.864 17.034 279.852 17.034 268.736V37.264Z" fill="#55AA55"/>
<path d="M183.24 71.2374C207.936 95.9342 191.468 152.444 146.456 197.456C101.444 242.468 44.9342 258.936 20.2374 234.24C-4.45932 209.543 12.0093 153.033 57.0211 108.021C102.033 63.0093 158.543 46.5407 183.24 71.2374Z" fill="#F3F3F3"/>
<path d="M102 213C94.8939 213 88.6894 211.775 83.3864 209.325C78.1894 206.768 74.1591 203.146 71.2955 198.459C68.4318 193.772 67 188.286 67 182.001C67 175.077 68.8561 169.112 72.5682 164.105C76.3864 159.099 82.3788 154.624 90.5455 150.683L105.977 143.173C110.644 140.936 114.25 138.007 116.795 134.385C119.341 130.763 120.614 126.768 120.614 122.401C120.614 117.288 118.917 113.24 115.523 110.257C112.235 107.274 107.727 105.783 102 105.783C96.2727 105.783 91.7121 107.328 88.3182 110.417C85.0303 113.399 83.3864 117.447 83.3864 122.561C83.3864 126.822 84.6061 130.763 87.0455 134.385C89.5909 138.007 93.0379 140.883 97.3864 143.013L112.818 150.364C121.303 154.305 127.455 158.832 131.273 163.945C135.091 168.952 137 174.971 137 182.001C137 191.482 133.818 199.045 127.455 204.691C121.197 210.23 112.712 213 102 213ZM102 200.217C108.47 200.217 113.561 198.566 117.273 195.264C121.091 191.855 123 187.328 123 181.682C123 177.101 121.78 172.947 119.341 169.218C116.902 165.49 113.402 162.507 108.841 160.27L93.5682 152.76C85.0833 148.606 78.9318 144.132 75.1136 139.338C71.2955 134.545 69.3864 128.792 69.3864 122.081C69.3864 116.116 70.7121 110.949 73.3636 106.582C76.0151 102.214 79.7803 98.8589 84.6591 96.5153C89.5379 94.1718 95.3182 93 102 93C108.682 93 114.462 94.1718 119.341 96.5153C124.22 98.8589 127.985 102.214 130.636 106.582C133.288 110.949 134.614 116.116 134.614 122.081C134.614 128.792 132.705 134.545 128.886 139.338C125.068 144.025 118.758 148.553 109.955 152.92L94.6818 160.43C90.3333 162.561 86.9394 165.49 84.5 169.218C82.1667 172.84 81 176.888 81 181.362C81 187.115 82.8561 191.695 86.5682 195.104C90.3864 198.513 95.5303 200.217 102 200.217Z" fill="#55AA55"/>
<path d="M47 88C43.5485 88 40.5348 87.4079 37.9591 86.2237C35.4348 84.988 33.4773 83.2375 32.0864 80.972C30.6955 78.7066 30 76.055 30 73.0173C30 69.6707 30.9015 66.7874 32.7045 64.3675C34.5591 61.9476 37.4697 59.7852 41.4364 57.8802L48.9318 54.2503C51.1985 53.1691 52.95 51.7532 54.1864 50.0027C55.4227 48.2521 56.0409 46.3214 56.0409 44.2104C56.0409 41.739 55.2167 39.7825 53.5682 38.3409C51.9712 36.8993 49.7818 36.1784 47 36.1784C44.2182 36.1784 42.003 36.925 40.3545 38.4181C38.7576 39.8597 37.9591 41.8162 37.9591 44.2876C37.9591 46.3471 38.5515 48.2521 39.7364 50.0027C40.9727 51.7532 42.647 53.1434 44.7591 54.1731L52.2545 57.7257C56.3758 59.6307 59.3636 61.8189 61.2182 64.2903C63.0727 66.7102 64 69.6192 64 73.0173C64 77.5996 62.4545 81.2552 59.3636 83.984C56.3242 86.6613 52.203 88 47 88ZM47 81.8216C50.1424 81.8216 52.6152 81.0235 54.4182 79.4274C56.2727 77.7798 57.2 75.5917 57.2 72.8629C57.2 70.6489 56.6076 68.6409 55.4227 66.8389C54.2379 65.0368 52.5379 63.5952 50.3227 62.514L42.9045 58.8842C38.7833 56.8762 35.7955 54.7137 33.9409 52.3968C32.0864 50.0799 31.1591 47.2996 31.1591 44.0559C31.1591 41.1727 31.803 38.6755 33.0909 36.5646C34.3788 34.4536 36.2076 32.8318 38.5773 31.6991C40.947 30.5664 43.7545 30 47 30C50.2455 30 53.053 30.5664 55.4227 31.6991C57.7924 32.8318 59.6212 34.4536 60.9091 36.5646C62.197 38.6755 62.8409 41.1727 62.8409 44.0559C62.8409 47.2996 61.9136 50.0799 60.0591 52.3968C58.2045 54.6622 55.1394 56.8504 50.8636 58.9614L43.4455 62.5912C41.3333 63.6209 39.6848 65.0368 38.5 66.8389C37.3667 68.5894 36.8 70.5459 36.8 72.7084C36.8 75.4887 37.7015 77.7026 39.5045 79.3502C41.3591 80.9978 43.8576 81.8216 47 81.8216Z" fill="#F3F3F3"/>
<path d="M156.917 276C153.482 276 150.483 275.408 147.92 274.224C145.408 272.988 143.46 271.237 142.076 268.972C140.692 266.707 140 264.055 140 261.017C140 257.671 140.897 254.787 142.691 252.368C144.537 249.948 147.433 247.785 151.38 245.88L158.839 242.25C161.095 241.169 162.838 239.753 164.068 238.003C165.298 236.252 165.913 234.321 165.913 232.21C165.913 229.739 165.093 227.783 163.453 226.341C161.864 224.899 159.685 224.178 156.917 224.178C154.148 224.178 151.944 224.925 150.304 226.418C148.715 227.86 147.92 229.816 147.92 232.288C147.92 234.347 148.51 236.252 149.689 238.003C150.919 239.753 152.585 241.143 154.687 242.173L162.145 245.726C166.246 247.631 169.22 249.819 171.065 252.29C172.911 254.71 173.833 257.619 173.833 261.017C173.833 265.6 172.295 269.255 169.22 271.984C166.195 274.661 162.094 276 156.917 276ZM156.917 269.822C160.044 269.822 162.504 269.024 164.298 267.427C166.144 265.78 167.067 263.592 167.067 260.863C167.067 258.649 166.477 256.641 165.298 254.839C164.119 253.037 162.427 251.595 160.223 250.514L152.841 246.884C148.74 244.876 145.767 242.714 143.922 240.397C142.076 238.08 141.153 235.3 141.153 232.056C141.153 229.173 141.794 226.676 143.076 224.565C144.357 222.454 146.177 220.832 148.535 219.699C150.893 218.566 153.687 218 156.917 218C160.146 218 162.94 218.566 165.298 219.699C167.656 220.832 169.476 222.454 170.758 224.565C172.039 226.676 172.68 229.173 172.68 232.056C172.68 235.3 171.757 238.08 169.912 240.397C168.066 242.662 165.016 244.85 160.761 246.961L153.38 250.591C151.278 251.621 149.637 253.037 148.458 254.839C147.331 256.589 146.767 258.546 146.767 260.708C146.767 263.489 147.664 265.703 149.458 267.35C151.303 268.998 153.79 269.822 156.917 269.822Z" fill="#F3F3F3"/>
</svg>
