<svg width="204" height="306" viewBox="0 0 204 306" fill="none" xmlns="http://www.w3.org/2000/svg">
<path d="M0 30.6C0 13.7001 13.7001 0 30.6 0H173.4C190.3 0 204 13.7001 204 30.6V275.4C204 292.3 190.3 306 173.4 306H30.6C13.7001 306 0 292.3 0 275.4V30.6Z" fill="#171717"/>
<path d="M2.04 32.232C2.04 15.5574 15.4661 2.04 32.028 2.04H171.972C188.534 2.04 201.96 15.5574 201.96 32.232V273.768C201.96 290.443 188.534 303.96 171.972 303.96H32.028C15.4661 303.96 2.04 290.443 2.04 273.768V32.232Z" fill="#F3F3F3"/>
<path d="M17.034 37.264C17.034 26.1476 25.9847 17.136 37.026 17.136H166.974C178.015 17.136 186.966 26.1476 186.966 37.264V268.736C186.966 279.852 178.015 288.864 166.974 288.864H37.026C25.9847 288.864 17.034 279.852 17.034 268.736V37.264Z" fill="#55AA55"/>
<path d="M183.24 71.2374C207.936 95.9342 191.468 152.444 146.456 197.456C101.444 242.468 44.9342 258.936 20.2374 234.24C-4.45932 209.543 12.0093 153.033 57.0211 108.021C102.033 63.0093 158.543 46.5407 183.24 71.2374Z" fill="#F3F3F3"/>
<path d="M101.5 214C94.2924 214 87.9992 212.602 82.6205 209.805C77.3492 206.901 73.2614 202.868 70.3568 197.705C67.4523 192.435 66 186.304 66 179.313V127.687C66 120.588 67.4523 114.457 70.3568 109.295C73.2614 104.132 77.3492 100.152 82.6205 97.356C87.9992 94.452 94.2924 93 101.5 93C108.815 93 115.108 94.452 120.38 97.356C125.651 100.152 129.739 104.132 132.643 109.295C135.548 114.457 137 120.588 137 127.687V179.313C137 186.304 135.548 192.435 132.643 197.705C129.739 202.868 125.597 206.901 120.218 209.805C114.947 212.602 108.708 214 101.5 214ZM101.5 201.577C107.955 201.577 113.118 199.534 116.991 195.447C120.971 191.252 122.961 185.874 122.961 179.313V127.687C122.961 121.126 120.971 115.802 116.991 111.715C113.118 107.52 107.955 105.423 101.5 105.423C95.0455 105.423 89.828 107.52 85.8477 111.715C81.975 115.802 80.0386 121.126 80.0386 127.687V179.313C80.0386 185.874 81.975 191.252 85.8477 195.447C89.828 199.534 95.0455 201.577 101.5 201.577ZM101.5 163.019C98.5955 163.019 96.2288 162.104 94.4 160.276C92.6788 158.448 91.8182 156.028 91.8182 153.016C91.8182 150.112 92.6788 147.8 94.4 146.079C96.2288 144.25 98.5955 143.336 101.5 143.336C104.405 143.336 106.717 144.25 108.439 146.079C110.267 147.8 111.182 150.112 111.182 153.016C111.182 156.028 110.267 158.448 108.439 160.276C106.717 162.104 104.405 163.019 101.5 163.019Z" fill="#55AA55"/>
<path d="M48 91C44.3455 91 41.1545 90.2951 38.4273 88.8853C35.7545 87.4213 33.6818 85.388 32.2091 82.7853C30.7364 80.1284 30 77.0378 30 73.5133V47.4867C30 43.908 30.7364 40.8173 32.2091 38.2147C33.6818 35.612 35.7545 33.6058 38.4273 32.196C41.1545 30.732 44.3455 30 48 30C51.7091 30 54.9 30.732 57.5727 32.196C60.2455 33.6058 62.3182 35.612 63.7909 38.2147C65.2636 40.8173 66 43.908 66 47.4867V73.5133C66 77.0378 65.2636 80.1284 63.7909 82.7853C62.3182 85.388 60.2182 87.4213 57.4909 88.8853C54.8182 90.2951 51.6545 91 48 91ZM48 84.7373C51.2727 84.7373 53.8909 83.7071 55.8545 81.6467C57.8727 79.532 58.8818 76.8209 58.8818 73.5133V47.4867C58.8818 44.1791 57.8727 41.4951 55.8545 39.4347C53.8909 37.32 51.2727 36.2627 48 36.2627C44.7273 36.2627 42.0818 37.32 40.0636 39.4347C38.1 41.4951 37.1182 44.1791 37.1182 47.4867V73.5133C37.1182 76.8209 38.1 79.532 40.0636 81.6467C42.0818 83.7071 44.7273 84.7373 48 84.7373ZM48 65.2987C46.5273 65.2987 45.3273 64.8378 44.4 63.916C43.5273 62.9942 43.0909 61.7742 43.0909 60.256C43.0909 58.792 43.5273 57.6262 44.4 56.7587C45.3273 55.8369 46.5273 55.376 48 55.376C49.4727 55.376 50.6455 55.8369 51.5182 56.7587C52.4455 57.6262 52.9091 58.792 52.9091 60.256C52.9091 61.7742 52.4455 62.9942 51.5182 63.916C50.6455 64.8378 49.4727 65.2987 48 65.2987Z" fill="#F3F3F3"/>
<path d="M155.897 276C152.263 276 149.091 275.295 146.379 273.885C143.722 272.421 141.661 270.388 140.196 267.785C138.732 265.128 138 262.038 138 258.513V232.487C138 228.908 138.732 225.817 140.196 223.215C141.661 220.612 143.722 218.606 146.379 217.196C149.091 215.732 152.263 215 155.897 215C159.585 215 162.757 215.732 165.414 217.196C168.072 218.606 170.133 220.612 171.597 223.215C173.061 225.817 173.793 228.908 173.793 232.487V258.513C173.793 262.038 173.061 265.128 171.597 267.785C170.133 270.388 168.045 272.421 165.333 273.885C162.676 275.295 159.53 276 155.897 276ZM155.897 269.737C159.151 269.737 161.754 268.707 163.706 266.647C165.713 264.532 166.716 261.821 166.716 258.513V232.487C166.716 229.179 165.713 226.495 163.706 224.435C161.754 222.32 159.151 221.263 155.897 221.263C152.643 221.263 150.012 222.32 148.006 224.435C146.054 226.495 145.077 229.179 145.077 232.487V258.513C145.077 261.821 146.054 264.532 148.006 266.647C150.012 268.707 152.643 269.737 155.897 269.737ZM155.897 250.299C154.432 250.299 153.239 249.838 152.317 248.916C151.45 247.994 151.016 246.774 151.016 245.256C151.016 243.792 151.45 242.626 152.317 241.759C153.239 240.837 154.432 240.376 155.897 240.376C157.361 240.376 158.527 240.837 159.395 241.759C160.317 242.626 160.778 243.792 160.778 245.256C160.778 246.774 160.317 247.994 159.395 248.916C158.527 249.838 157.361 250.299 155.897 250.299Z" fill="#F3F3F3"/>
</svg>
