<svg width="204" height="306" viewBox="0 0 204 306" fill="none" xmlns="http://www.w3.org/2000/svg">
<path d="M0 30.6C0 13.7001 13.7001 0 30.6 0H173.4C190.3 0 204 13.7001 204 30.6V275.4C204 292.3 190.3 306 173.4 306H30.6C13.7001 306 0 292.3 0 275.4V30.6Z" fill="#171717"/>
<path d="M2.04 32.232C2.04 15.5574 15.4661 2.04 32.028 2.04H171.972C188.534 2.04 201.96 15.5574 201.96 32.232V273.768C201.96 290.443 188.534 303.96 171.972 303.96H32.028C15.4661 303.96 2.04 290.443 2.04 273.768V32.232Z" fill="#F3F3F3"/>
<path d="M17.034 37.264C17.034 26.1476 25.9847 17.136 37.026 17.136H166.974C178.015 17.136 186.966 26.1476 186.966 37.264V268.736C186.966 279.852 178.015 288.864 166.974 288.864H37.026C25.9847 288.864 17.034 279.852 17.034 268.736V37.264Z" fill="#FF5555"/>
<path d="M183.24 71.2374C207.936 95.9342 191.468 152.444 146.456 197.456C101.444 242.468 44.9342 258.936 20.2374 234.24C-4.45932 209.543 12.0093 153.033 57.0211 108.021C102.033 63.0093 158.543 46.5407 183.24 71.2374Z" fill="#F3F3F3"/>
<path d="M114.637 130H73.3132C67.6076 130 61.8015 134.133 60.345 139.23L39.3339 212.769C37.8773 217.867 41.3219 222 47.0275 222H88.3516C94.0572 222 99.8634 217.867 101.32 212.769L122.331 139.23C123.788 134.133 120.343 130 114.637 130Z" fill="#171717"/>
<path d="M113.69 131H73.6896C68.1668 131 62.5345 135.042 61.1096 140.03L40.5552 211.97C39.1303 216.957 42.4524 221 47.9752 221H87.9752C93.4981 221 99.1303 216.957 100.555 211.97L121.11 140.03C122.535 135.042 119.212 131 113.69 131Z" fill="#F3F3F3"/>
<path d="M100.832 141H80.8324C75.3096 141 69.6773 145.043 68.2525 150.03L53.4123 201.97C51.9875 206.957 55.3096 211 60.8324 211H80.8324C86.3552 211 91.9875 206.957 93.4123 201.97L108.252 150.03C109.677 145.043 106.355 141 100.832 141Z" fill="#FF5555"/>
<path d="M156.805 84H115.481C109.775 84 103.969 88.1325 102.512 93.2304L81.5012 166.769C80.0447 171.867 83.4892 176 89.1949 176H130.519C136.225 176 142.031 171.867 143.487 166.769L164.498 93.2304C165.955 88.1325 162.51 84 156.805 84Z" fill="#171717"/>
<path d="M155.857 84.9998H115.857C110.334 84.9998 104.702 89.0425 103.277 94.0295L82.7225 165.97C81.2977 170.957 84.6197 175 90.1425 175H130.143C135.665 175 141.298 170.957 142.723 165.97L163.277 94.0295C164.702 89.0425 161.38 84.9998 155.857 84.9998Z" fill="#F3F3F3"/>
<path d="M143 95H123C117.477 95 111.845 99.0427 110.42 104.03L95.5797 155.97C94.1548 160.957 97.4769 165 103 165H123C128.523 165 134.155 160.957 135.58 155.97L150.42 104.03C151.845 99.0427 148.523 95 143 95Z" fill="#FF5555"/>
<path fill-rule="evenodd" clip-rule="evenodd" d="M37.1053 44.2104V51.3158H30V58.4209H37.1053V65.5262H44.2106V58.4209H51.3159V51.3158H44.2106V44.2104H37.1053Z" fill="#F3F3F3"/>
<path d="M69.7894 30C61.9167 30 55.5788 36.3379 55.5788 44.2105V45.6316H62.6841V44.2105C62.6841 40.2742 65.8531 37.1053 69.7894 37.1053C73.7257 37.1053 76.8947 40.2742 76.8947 44.2105C76.8947 45.8128 75.5652 48.957 74.177 50.0496C66.6385 55.9825 66.7181 55.0027 55.5788 62.6842V72.6316H84V62.6842H76.8947V65.5263H64.1052C72.9016 59.3323 73.5448 59.4824 80.4375 53.3141C82.6459 51.3378 84 47.4153 84 44.2105C84 36.3379 77.6621 30 69.7894 30Z" fill="#F3F3F3"/>
<path fill-rule="evenodd" clip-rule="evenodd" d="M166.895 261.421V254.316H174V247.211H166.895V240.105H159.789V247.211H152.684V254.316H159.789V261.421H166.895Z" fill="#F3F3F3"/>
<path d="M134.211 275.632C142.083 275.632 148.421 269.294 148.421 261.421V260H141.316V261.421C141.316 265.357 138.147 268.526 134.211 268.526C130.274 268.526 127.105 265.357 127.105 261.421C127.105 259.819 128.435 256.675 129.823 255.582C137.361 249.649 137.282 250.629 148.421 242.947V233H120V242.947H127.105V240.105H139.895C131.098 246.299 130.455 246.149 123.563 252.317C121.354 254.294 120 258.216 120 261.421C120 269.294 126.338 275.632 134.211 275.632Z" fill="#F3F3F3"/>
</svg>
