<svg width="204" height="306" viewBox="0 0 204 306" fill="none" xmlns="http://www.w3.org/2000/svg">
<path d="M0 30.6C0 13.7001 13.7001 0 30.6 0H173.4C190.3 0 204 13.7001 204 30.6V275.4C204 292.3 190.3 306 173.4 306H30.6C13.7001 306 0 292.3 0 275.4V30.6Z" fill="#171717"/>
<path d="M2.04 32.232C2.04 15.5574 15.4661 2.04 32.028 2.04H171.972C188.534 2.04 201.96 15.5574 201.96 32.232V273.768C201.96 290.443 188.534 303.96 171.972 303.96H32.028C15.4661 303.96 2.04 290.443 2.04 273.768V32.232Z" fill="#F3F3F3"/>
<path d="M17.034 37.264C17.034 26.1476 25.9847 17.136 37.026 17.136H166.974C178.015 17.136 186.966 26.1476 186.966 37.264V268.736C186.966 279.852 178.015 288.864 166.974 288.864H37.026C25.9847 288.864 17.034 279.852 17.034 268.736V37.264Z" fill="#FF5555"/>
<path d="M183.24 71.2374C207.936 95.9342 191.468 152.444 146.456 197.456C101.444 242.468 44.9342 258.936 20.2374 234.24C-4.45932 209.543 12.0093 153.033 57.0211 108.021C102.033 63.0093 158.543 46.5407 183.24 71.2374Z" fill="#F3F3F3"/>
<path d="M51 129.409C51 124.095 55.2813 119.788 60.5625 119.788H105.188C110.469 119.788 114.75 124.095 114.75 129.409V206.379C114.75 211.692 110.469 216 105.188 216H60.5625C55.2813 216 51 211.692 51 206.379V129.409Z" fill="#171717"/>
<path d="M51.6375 129.922C51.6375 124.679 55.8332 120.429 61.0088 120.429H104.741C109.917 120.429 114.113 124.679 114.113 129.922V205.866C114.113 211.108 109.917 215.359 104.741 215.359H61.0088C55.8332 215.359 51.6375 211.108 51.6375 205.866V129.922Z" fill="#F3F3F3"/>
<path d="M56.3231 131.504C56.3231 128.009 59.1202 125.176 62.5706 125.176H103.179C106.63 125.176 109.427 128.009 109.427 131.504V204.284C109.427 207.779 106.63 210.612 103.179 210.612H62.5706C59.1202 210.612 56.3231 207.779 56.3231 204.284V131.504Z" fill="#FF5555"/>
<path d="M63.75 119.146C63.75 113.833 68.0313 109.525 73.3125 109.525H117.938C123.219 109.525 127.5 113.833 127.5 119.146V196.116C127.5 201.43 123.219 205.737 117.938 205.737H73.3125C68.0313 205.737 63.75 201.43 63.75 196.116V119.146Z" fill="#171717"/>
<path d="M64.3875 119.66C64.3875 114.417 68.5832 110.167 73.7588 110.167H117.491C122.667 110.167 126.862 114.417 126.862 119.66V195.603C126.862 200.846 122.667 205.096 117.491 205.096H73.7587C68.5831 205.096 64.3875 200.846 64.3875 195.603V119.66Z" fill="#F3F3F3"/>
<path d="M69.0731 121.242C69.0731 117.747 71.8702 114.913 75.3206 114.913H115.929C119.38 114.913 122.177 117.747 122.177 121.242V194.021C122.177 197.516 119.38 200.35 115.929 200.35H75.3206C71.8702 200.35 69.0731 197.516 69.0731 194.021V121.242Z" fill="#FF5555"/>
<path d="M76.5 108.884C76.5 103.57 80.7813 99.2626 86.0625 99.2626H130.688C135.969 99.2626 140.25 103.57 140.25 108.884V185.854C140.25 191.167 135.969 195.475 130.688 195.475H86.0625C80.7813 195.475 76.5 191.167 76.5 185.854V108.884Z" fill="#171717"/>
<path d="M77.1375 109.397C77.1375 104.154 81.3332 99.904 86.5088 99.904H130.241C135.417 99.904 139.612 104.154 139.612 109.397V185.34C139.612 190.583 135.417 194.833 130.241 194.833H86.5087C81.3331 194.833 77.1375 190.583 77.1375 185.34V109.397Z" fill="#F3F3F3"/>
<path d="M81.8231 110.979C81.8231 107.484 84.6202 104.651 88.0706 104.651H128.679C132.13 104.651 134.927 107.484 134.927 110.979V183.758C134.927 187.253 132.13 190.087 128.679 190.087H88.0706C84.6202 190.087 81.8231 187.253 81.8231 183.758V110.979Z" fill="#FF5555"/>
<path d="M89.25 98.6212C89.25 93.3076 93.5313 89 98.8125 89H143.438C148.719 89 153 93.3076 153 98.6212V175.591C153 180.905 148.719 185.212 143.438 185.212H98.8125C93.5313 185.212 89.25 180.905 89.25 175.591V98.6212Z" fill="#171717"/>
<path d="M89.8875 99.1343C89.8875 93.8915 94.0831 89.6414 99.2587 89.6414H142.991C148.167 89.6414 152.362 93.8915 152.362 99.1343V175.078C152.362 180.321 148.167 184.571 142.991 184.571H99.2587C94.0831 184.571 89.8875 180.321 89.8875 175.078V99.1343Z" fill="#F3F3F3"/>
<path d="M94.5731 100.716C94.5731 97.2213 97.3702 94.3879 100.821 94.3879H141.429C144.88 94.3879 147.677 97.2213 147.677 100.716V173.496C147.677 176.991 144.88 179.824 141.429 179.824H100.821C97.3702 179.824 94.5731 176.991 94.5731 173.496V100.716Z" fill="#FF5555"/>
<path d="M30.1454 39.7527C29.5778 37.7813 30.7224 35.7249 32.7021 35.1596L49.4296 30.383C51.4093 29.8177 53.4743 30.9576 54.0419 32.929L62.2646 61.4855C62.8322 63.4569 61.6876 65.5133 59.7079 66.0786L42.9804 70.8552C41.0007 71.4205 38.9357 70.2806 38.3681 68.3092L30.1454 39.7527Z" fill="#171717"/>
<path d="M30.4392 39.8748C29.8791 37.9297 30.9978 35.9038 32.9379 35.3498L49.3309 30.6687C51.2709 30.1147 53.2977 31.2425 53.8578 33.1876L61.9708 61.3633C62.5309 63.3085 61.4122 65.3344 59.4721 65.8884L43.0791 70.5695C41.1391 71.1234 39.1123 69.9957 38.5522 68.0506L30.4392 39.8748Z" fill="#F3F3F3"/>
<path d="M32.3646 39.9603C31.9912 38.6635 32.737 37.3129 34.0304 36.9436L49.2525 32.5969C50.5458 32.2276 51.897 32.9794 52.2704 34.2761L60.0454 61.2779C60.4188 62.5746 59.673 63.9253 58.3796 64.2946L43.1575 68.6413C41.8642 69.0106 40.513 68.2588 40.1396 66.962L32.3646 39.9603Z" fill="#FF5555"/>
<path d="M39.2782 36.6424C38.9916 34.6115 40.4125 32.7338 42.4519 32.4484L59.6842 30.0366C61.7236 29.7512 63.6092 31.1662 63.8958 33.1971L68.0475 62.6152C68.3341 64.6462 66.9132 66.5239 64.8738 66.8093L47.6415 69.2211C45.6021 69.5065 43.7165 68.0915 43.4299 66.0606L39.2782 36.6424Z" fill="#171717"/>
<path d="M39.552 36.8041C39.2692 34.8003 40.6602 32.9491 42.6588 32.6694L59.5465 30.3059C61.5451 30.0262 63.3945 31.4238 63.6773 33.4276L67.7737 62.4536C68.0565 64.4574 66.6655 66.3086 64.6669 66.5883L47.7793 68.9518C45.7807 69.2315 43.9312 67.8339 43.6484 65.8301L39.552 36.8041Z" fill="#F3F3F3"/>
<path d="M41.4468 37.1556C41.2582 35.8197 42.1855 34.5856 43.5179 34.3991L59.1994 32.2044C60.5318 32.0179 61.7647 32.9497 61.9532 34.2856L65.8789 62.1021C66.0675 63.438 65.1402 64.6721 63.8078 64.8586L48.1264 67.0533C46.794 67.2398 45.561 66.308 45.3725 64.9721L41.4468 37.1556Z" fill="#FF5555"/>
<path d="M48.691 34.7752C48.691 32.7243 50.3605 31.0618 52.4199 31.0618H69.8216C71.881 31.0618 73.5505 32.7243 73.5505 34.7752V64.4825C73.5505 66.5334 71.881 68.1959 69.8216 68.1959H52.4199C50.3605 68.1959 48.691 66.5334 48.691 64.4825V34.7752Z" fill="#171717"/>
<path d="M48.9396 34.9733C48.9396 32.9497 50.5757 31.3094 52.5939 31.3094H69.6475C71.6658 31.3094 73.3019 32.9497 73.3019 34.9733V64.2844C73.3019 66.308 71.6658 67.9483 69.6475 67.9483H52.5939C50.5757 67.9483 48.9396 66.308 48.9396 64.2844V34.9733Z" fill="#F3F3F3"/>
<path d="M50.7667 35.5839C50.7667 34.2349 51.8575 33.1413 53.203 33.1413H69.0385C70.384 33.1413 71.4747 34.2349 71.4747 35.5839V63.6738C71.4747 65.0228 70.384 66.1164 69.0385 66.1164H53.203C51.8575 66.1164 50.7667 65.0228 50.7667 63.6738V35.5839Z" fill="#FF5555"/>
<path d="M58.3456 34.1873C58.6323 32.1564 60.5179 30.7414 62.5573 31.0268L79.7896 33.4386C81.829 33.724 83.2499 35.6018 82.9632 37.6327L78.8115 67.0509C78.5249 69.0818 76.6393 70.4968 74.5999 70.2113L57.3676 67.7996C55.3282 67.5142 53.9073 65.6364 54.1939 63.6055L58.3456 34.1873Z" fill="#171717"/>
<path d="M58.5641 34.4179C58.8469 32.4141 60.6964 31.0164 62.695 31.2961L79.5826 33.6596C81.5813 33.9394 82.9722 35.7905 82.6894 37.7944L78.593 66.8203C78.3102 68.8241 76.4608 70.2218 74.4622 69.9421L57.5745 67.5785C55.5759 67.2988 54.185 65.4477 54.4678 63.4438L58.5641 34.4179Z" fill="#F3F3F3"/>
<path d="M60.2882 35.2758C60.4767 33.94 61.7097 33.0082 63.0421 33.1946L78.7235 35.3894C80.0559 35.5758 80.9832 36.81 80.7947 38.1458L76.869 65.9624C76.6804 67.2982 75.4475 68.23 74.1151 68.0435L58.4337 65.8488C57.1013 65.6624 56.174 64.4282 56.3625 63.0924L60.2882 35.2758Z" fill="#FF5555"/>
<path d="M173.855 266.247C174.422 268.219 173.278 270.275 171.298 270.84L154.57 275.617C152.591 276.182 150.526 275.042 149.958 273.071L141.735 244.515C141.168 242.543 142.312 240.487 144.292 239.921L161.02 235.145C162.999 234.58 165.064 235.719 165.632 237.691L173.855 266.247Z" fill="#171717"/>
<path d="M173.561 266.125C174.121 268.07 173.002 270.096 171.062 270.65L154.669 275.331C152.729 275.885 150.702 274.758 150.142 272.812L142.029 244.637C141.469 242.692 142.588 240.666 144.528 240.112L160.921 235.431C162.861 234.877 164.888 236.004 165.448 237.949L173.561 266.125Z" fill="#F3F3F3"/>
<path d="M171.635 266.04C172.009 267.336 171.263 268.687 169.97 269.056L154.748 273.403C153.454 273.772 152.103 273.021 151.73 271.724L143.955 244.722C143.581 243.425 144.327 242.075 145.62 241.705L160.842 237.359C162.136 236.989 163.487 237.741 163.86 239.038L171.635 266.04Z" fill="#FF5555"/>
<path d="M164.722 269.358C165.008 271.388 163.588 273.266 161.548 273.552L144.316 275.963C142.276 276.249 140.391 274.834 140.104 272.803L135.952 243.385C135.666 241.354 137.087 239.476 139.126 239.191L156.358 236.779C158.398 236.493 160.283 237.908 160.57 239.939L164.722 269.358Z" fill="#171717"/>
<path d="M164.448 269.196C164.731 271.2 163.34 273.051 161.341 273.331L144.454 275.694C142.455 275.974 140.606 274.576 140.323 272.572L136.226 243.546C135.944 241.543 137.334 239.691 139.333 239.412L156.221 237.048C158.219 236.768 160.069 238.166 160.352 240.17L164.448 269.196Z" fill="#F3F3F3"/>
<path d="M162.553 268.844C162.742 270.18 161.814 271.414 160.482 271.601L144.801 273.796C143.468 273.982 142.235 273.05 142.047 271.714L138.121 243.898C137.933 242.562 138.86 241.328 140.192 241.141L155.874 238.947C157.206 238.76 158.439 239.692 158.628 241.028L162.553 268.844Z" fill="#FF5555"/>
<path d="M155.309 271.225C155.309 273.276 153.64 274.938 151.58 274.938H134.178C132.119 274.938 130.45 273.276 130.45 271.225V241.518C130.45 239.467 132.119 237.804 134.178 237.804H151.58C153.64 237.804 155.309 239.467 155.309 241.518V271.225Z" fill="#171717"/>
<path d="M155.06 271.027C155.06 273.05 153.424 274.691 151.406 274.691H134.352C132.334 274.691 130.698 273.05 130.698 271.027V241.716C130.698 239.692 132.334 238.052 134.352 238.052H151.406C153.424 238.052 155.06 239.692 155.06 241.716V271.027Z" fill="#F3F3F3"/>
<path d="M153.233 270.416C153.233 271.765 152.143 272.859 150.797 272.859H134.962C133.616 272.859 132.525 271.765 132.525 270.416V242.326C132.525 240.977 133.616 239.884 134.962 239.884H150.797C152.143 239.884 153.233 240.977 153.233 242.326V270.416Z" fill="#FF5555"/>
<path d="M145.654 271.813C145.368 273.844 143.482 275.259 141.443 274.973L124.21 272.561C122.171 272.276 120.75 270.398 121.037 268.367L125.188 238.949C125.475 236.918 127.361 235.503 129.4 235.789L146.632 238.2C148.672 238.486 150.093 240.364 149.806 242.395L145.654 271.813Z" fill="#171717"/>
<path d="M145.436 271.582C145.153 273.586 143.304 274.984 141.305 274.704L124.417 272.34C122.419 272.061 121.028 270.209 121.311 268.206L125.407 239.18C125.69 237.176 127.539 235.778 129.538 236.058L146.425 238.421C148.424 238.701 149.815 240.552 149.532 242.556L145.436 271.582Z" fill="#F3F3F3"/>
<path d="M143.712 270.724C143.523 272.06 142.29 272.992 140.958 272.805L125.277 270.611C123.944 270.424 123.017 269.19 123.205 267.854L127.131 240.038C127.32 238.702 128.553 237.77 129.885 237.956L145.566 240.151C146.899 240.338 147.826 241.572 147.637 242.908L143.712 270.724Z" fill="#FF5555"/>
</svg>
