<svg width="204" height="306" viewBox="0 0 204 306" fill="none" xmlns="http://www.w3.org/2000/svg">
<path d="M0 30.6C0 13.7001 13.7001 0 30.6 0H173.4C190.3 0 204 13.7001 204 30.6V275.4C204 292.3 190.3 306 173.4 306H30.6C13.7001 306 0 292.3 0 275.4V30.6Z" fill="#171717"/>
<path d="M2.04 32.232C2.04 15.5574 15.4661 2.04 32.028 2.04H171.972C188.534 2.04 201.96 15.5574 201.96 32.232V273.768C201.96 290.443 188.534 303.96 171.972 303.96H32.028C15.4661 303.96 2.04 290.443 2.04 273.768V32.232Z" fill="#F3F3F3"/>
<path d="M17.034 37.264C17.034 26.1476 25.9847 17.136 37.026 17.136H166.974C178.015 17.136 186.966 26.1476 186.966 37.264V268.736C186.966 279.852 178.015 288.864 166.974 288.864H37.026C25.9847 288.864 17.034 279.852 17.034 268.736V37.264Z" fill="#FF5555"/>
<path d="M183.24 71.2374C207.936 95.9342 191.468 152.444 146.456 197.456C101.444 242.468 44.9342 258.936 20.2374 234.24C-4.45932 209.543 12.0093 153.033 57.0211 108.021C102.033 63.0093 158.543 46.5407 183.24 71.2374Z" fill="#F3F3F3"/>
<path d="M74.1309 188.59C76.4394 185.594 80.2573 181.011 85.5846 174.842C91.3559 168.32 95.9729 162.767 99.4357 158.185C102.987 153.514 105.962 148.666 108.359 143.643C110.845 138.531 112.088 133.551 112.088 128.704C112.088 125.972 111.2 123.46 109.424 121.169C107.737 118.789 105.207 117.599 101.833 117.599C98.459 117.599 95.4846 119.23 92.9097 122.491C90.3348 125.664 88.6923 129.497 87.9819 133.992L72 128.836C72.8879 124.077 74.6637 119.671 77.3273 115.617C79.991 111.474 83.4537 108.169 87.7156 105.702C91.9774 103.234 96.8164 102 102.233 102C107.826 102 112.798 103.146 117.149 105.437C121.5 107.729 124.874 110.945 127.271 115.088C129.757 119.142 131 123.769 131 128.969C131 138.487 127.715 148.005 121.144 157.524C114.574 167.042 106.095 176.781 95.7066 186.74H130.201L128.603 203H74.1309V188.59Z" fill="#FF5555"/>
<path d="M31.0113 71.1518C32.1068 69.7277 33.9187 67.5497 36.447 64.6178C39.1859 61.5183 41.377 58.8796 43.0203 56.7016C44.7058 54.4817 46.1174 52.178 47.2551 49.7906C48.4349 47.3613 49.0248 44.9948 49.0248 42.6911C49.0248 41.3927 48.6035 40.199 47.7607 39.11C46.9601 37.9791 45.7592 37.4136 44.158 37.4136C42.5568 37.4136 41.1452 38.1885 39.9233 39.7382C38.7013 41.2461 37.9217 43.0681 37.5846 45.2042L30 42.7539C30.4214 40.4921 31.2641 38.3979 32.5282 36.4712C33.7923 34.5026 35.4357 32.9319 37.4582 31.7592C39.4808 30.5864 41.7773 30 44.3476 30C47.0023 30 49.3619 30.5445 51.4266 31.6335C53.4913 32.7225 55.0925 34.2513 56.2302 36.2199C57.4101 38.1466 58 40.3456 58 42.8168C58 47.3403 56.4409 51.8639 53.3228 56.3874C50.2047 60.911 46.1806 65.5393 41.2506 70.2722H57.6208L56.8623 78H31.0113V71.1518Z" fill="#F3F3F3"/>
<path d="M172.987 234.848C171.89 236.272 170.076 238.45 167.544 241.382C164.801 244.482 162.607 247.12 160.961 249.298C159.273 251.518 157.86 253.822 156.721 256.209C155.539 258.639 154.948 261.005 154.948 263.309C154.948 264.607 155.37 265.801 156.214 266.89C157.016 268.021 158.218 268.586 159.822 268.586C161.425 268.586 162.839 267.812 164.063 266.262C165.286 264.754 166.067 262.932 166.405 260.796L174 263.246C173.578 265.508 172.734 267.602 171.468 269.529C170.202 271.497 168.557 273.068 166.531 274.241C164.506 275.414 162.206 276 159.632 276C156.974 276 154.611 275.456 152.543 274.366C150.475 273.277 148.872 271.749 147.733 269.78C146.551 267.853 145.96 265.654 145.96 263.183C145.96 258.66 147.522 254.136 150.644 249.613C153.767 245.089 157.797 240.461 162.734 235.728H146.34L147.1 228H172.987V234.848Z" fill="#F3F3F3"/>
</svg>
