<svg width="204" height="306" viewBox="0 0 204 306" fill="none" xmlns="http://www.w3.org/2000/svg">
<path d="M0 30.6C0 13.7001 13.7001 0 30.6 0H173.4C190.3 0 204 13.7001 204 30.6V275.4C204 292.3 190.3 306 173.4 306H30.6C13.7001 306 0 292.3 0 275.4V30.6Z" fill="#171717"/>
<path d="M2.04 32.232C2.04 15.5574 15.4661 2.04 32.028 2.04H171.972C188.534 2.04 201.96 15.5574 201.96 32.232V273.768C201.96 290.443 188.534 303.96 171.972 303.96H32.028C15.4661 303.96 2.04 290.443 2.04 273.768V32.232Z" fill="#F3F3F3"/>
<path d="M17.034 37.264C17.034 26.1476 25.9847 17.136 37.026 17.136H166.974C178.015 17.136 186.966 26.1476 186.966 37.264V268.736C186.966 279.852 178.015 288.864 166.974 288.864H37.026C25.9847 288.864 17.034 279.852 17.034 268.736V37.264Z" fill="#171717"/>
<path d="M183.24 71.2374C207.936 95.9342 191.468 152.444 146.456 197.456C101.444 242.468 44.9342 258.936 20.2374 234.24C-4.45932 209.543 12.0093 153.033 57.0211 108.021C102.033 63.0093 158.543 46.5407 183.24 71.2374Z" fill="#F3F3F3"/>
<path d="M101.02 113.948H64.9505C59.9703 113.948 54.9024 117.54 53.6311 121.972L35.2914 185.897C34.0201 190.329 37.0267 193.922 42.0069 193.922H78.0768C83.057 193.922 88.1249 190.329 89.3962 185.897L107.736 121.972C109.007 117.54 106.001 113.948 101.02 113.948Z" fill="#171717"/>
<path d="M100.193 114.817H65.279C60.4583 114.817 55.5422 118.331 54.2985 122.666L36.3575 185.203C35.1138 189.538 38.0134 193.052 42.834 193.052H77.7483C82.5689 193.052 87.4851 189.538 88.7288 185.203L106.67 122.666C107.914 118.331 105.014 114.817 100.193 114.817Z" fill="#F3F3F3"/>
<path d="M88.9707 123.51H71.5136C66.693 123.51 61.7769 127.024 60.5332 131.359L47.5799 176.51C46.3362 180.845 49.2359 184.36 54.0565 184.36H71.5136C76.3342 184.36 81.2504 180.845 82.4941 176.51L95.4474 131.359C96.6911 127.024 93.7914 123.51 88.9707 123.51Z" fill="#FF5555"/>
<path d="M136.807 87H100.738C95.7573 87 90.6895 90.5924 89.4181 95.0238L71.0785 158.95C69.8071 163.381 72.8137 166.974 77.7939 166.974H113.864C118.844 166.974 123.912 163.381 125.183 158.95L143.523 95.0238C144.794 90.5924 141.788 87 136.807 87Z" fill="#171717"/>
<path d="M135.98 87.8691H101.066C96.2454 87.8691 91.3293 91.3833 90.0856 95.7185L72.1445 158.255C70.9008 162.59 73.8005 166.105 78.6211 166.105H113.535C118.356 166.105 123.272 162.59 124.516 158.255L142.457 95.7185C143.701 91.3833 140.801 87.8691 135.98 87.8691Z" fill="#F3F3F3"/>
<path d="M124.758 96.5621H107.301C102.48 96.5621 97.5639 100.076 96.3202 104.412L83.3669 149.562C82.1232 153.898 85.0229 157.412 89.8436 157.412H107.301C112.121 157.412 117.037 153.898 118.281 149.562L131.234 104.412C132.478 100.076 129.578 96.5621 124.758 96.5621Z" fill="#5555FF"/>
<path d="M126.333 140.026H90.2633C85.2831 140.026 80.2152 143.619 78.9439 148.05L60.6042 211.976C59.3329 216.407 62.3395 220 67.3197 220H103.39C108.37 220 113.438 216.407 114.709 211.976L133.049 148.05C134.32 143.619 131.313 140.026 126.333 140.026Z" fill="#171717"/>
<path d="M125.506 140.895H90.5918C85.7711 140.895 80.855 144.41 79.6113 148.745L61.6703 211.281C60.4266 215.616 63.3262 219.131 68.1468 219.131H103.061C107.882 219.131 112.798 215.616 114.042 211.281L131.983 148.745C133.226 144.41 130.327 140.895 125.506 140.895Z" fill="#F3F3F3"/>
<path d="M114.284 149.588H96.8264C92.0058 149.588 87.0897 153.103 85.846 157.438L72.8927 202.589C71.649 206.924 74.5487 210.438 79.3693 210.438H96.8264C101.647 210.438 106.563 206.924 107.807 202.589L120.76 157.438C122.004 153.103 119.104 149.588 114.284 149.588Z" fill="#FFAA00"/>
<path d="M162.993 113.948H126.923C121.943 113.948 116.875 117.54 115.604 121.972L97.2641 185.897C95.9928 190.329 98.9994 193.922 103.98 193.922H140.049C145.03 193.922 150.098 190.329 151.369 185.897L169.709 121.972C170.98 117.54 167.973 113.948 162.993 113.948Z" fill="#171717"/>
<path d="M162.166 114.817H127.252C122.431 114.817 117.515 118.331 116.271 122.666L98.3302 185.203C97.0865 189.538 99.9861 193.052 104.807 193.052H139.721C144.542 193.052 149.458 189.538 150.701 185.203L168.643 122.666C169.886 118.331 166.987 114.817 162.166 114.817Z" fill="#F3F3F3"/>
<path d="M150.943 123.51H133.486C128.666 123.51 123.75 127.024 122.506 131.359L109.553 176.51C108.309 180.845 111.209 184.36 116.029 184.36H133.486C138.307 184.36 143.223 180.845 144.467 176.51L157.42 131.359C158.664 127.024 155.764 123.51 150.943 123.51Z" fill="#55AA55"/>
<path d="M102 107.896L109.25 115.134L80.25 144.09C73 151.328 73 165.806 80.25 173.045L123.75 129.612L131 136.851V107.896H102Z" fill="#171717"/>
<path d="M102 202L94.75 194.761L123.75 165.806C131 158.567 131 144.09 123.75 136.851L80.25 180.284L73 173.045V202H102Z" fill="#171717"/>
<path d="M102 105L109.25 112.239L80.25 141.194C73 148.433 73 162.91 80.25 170.149L123.75 126.716L131 133.955V105H102Z" fill="#D9D9D9"/>
<path d="M102 199.104L94.75 191.866L123.75 162.91C131 155.672 131 141.194 123.75 133.955L80.25 177.388L73 170.149V199.104H102Z" fill="#D9D9D9"/>
<path d="M41.0323 30L43.7903 32.7692L32.7581 43.8462C30 46.6154 30 52.1538 32.7581 54.9231L49.3064 38.3077L52.0645 41.0769V30H41.0323Z" fill="#F3F3F3"/>
<path d="M41.0323 66L38.2742 63.2308L49.3064 52.1538C52.0645 49.3846 52.0645 43.8462 49.3064 41.0769L32.7581 57.6923L30 54.9231V66H41.0323Z" fill="#F3F3F3"/>
<path d="M87.7908 30L76.9591 52V57.5H90.2224V63H95.7487V57.5H99.0645V52H95.7487V41H90.2224V52H82.7065L93.5382 30H87.7908Z" fill="#F3F3F3"/>
<path fill-rule="evenodd" clip-rule="evenodd" d="M62.5909 41.0001V46.5001H57.0645V52H62.5909V57.5001H68.1172V52H73.6436V46.5001H68.1172V41.0001H62.5909Z" fill="#F3F3F3"/>
<path d="M163.032 276L160.274 273.231L171.306 262.154C174.065 259.385 174.065 253.846 171.306 251.077L154.758 267.692L152 264.923V276H163.032Z" fill="#F3F3F3"/>
<path d="M163.032 240L165.79 242.769L154.758 253.846C152 256.615 152 262.154 154.758 264.923L171.306 248.308L174.065 251.077V240H163.032Z" fill="#F3F3F3"/>
<path d="M116.274 276L127.105 254V248.5H113.842V243H108.316V248.5H105V254H108.316V265H113.842V254H121.358L110.526 276H116.274Z" fill="#F3F3F3"/>
<path fill-rule="evenodd" clip-rule="evenodd" d="M141.474 265V259.5H147V254H141.474V248.5H135.947V254H130.421V259.5H135.947V265H141.474Z" fill="#F3F3F3"/>
</svg>
