<svg width="204" height="306" viewBox="0 0 204 306" fill="none" xmlns="http://www.w3.org/2000/svg">
<path d="M0 30.6C0 13.7001 13.7001 0 30.6 0H173.4C190.3 0 204 13.7001 204 30.6V275.4C204 292.3 190.3 306 173.4 306H30.6C13.7001 306 0 292.3 0 275.4V30.6Z" fill="#171717"/>
<path d="M2.04 32.232C2.04 15.5574 15.4661 2.04 32.028 2.04H171.972C188.534 2.04 201.96 15.5574 201.96 32.232V273.768C201.96 290.443 188.534 303.96 171.972 303.96H32.028C15.4661 303.96 2.04 290.443 2.04 273.768V32.232Z" fill="#F3F3F3"/>
<path d="M17.034 37.264C17.034 26.1476 25.9847 17.136 37.026 17.136H166.974C178.015 17.136 186.966 26.1476 186.966 37.264V268.736C186.966 279.852 178.015 288.864 166.974 288.864H37.026C25.9847 288.864 17.034 279.852 17.034 268.736V37.264Z" fill="#171717"/>
<path d="M183.24 71.2374C207.936 95.9342 191.468 152.444 146.456 197.456C101.444 242.468 44.9342 258.936 20.2374 234.24C-4.45932 209.543 12.0093 153.033 57.0211 108.021C102.033 63.0093 158.543 46.5407 183.24 71.2374Z" fill="#F3F3F3"/>
<path d="M120.944 152.185C117.881 159.014 110.769 163.094 103.327 162.291L71.7478 158.883C64.3063 158.08 58.2282 152.576 56.6922 145.251L50.1739 114.162C48.638 106.836 51.9935 99.3543 58.4857 95.6298L86.0368 79.824C92.5289 76.0995 100.681 76.9793 106.229 82.0032L129.775 103.324C135.323 108.348 137.006 116.373 133.943 123.202L120.944 152.185Z" fill="#171717"/>
<path d="M117.081 150.552C114.783 155.674 109.449 158.734 103.868 158.132L72.1065 154.704C66.5254 154.102 61.9668 149.974 60.8148 144.48L54.259 113.212C53.107 107.717 55.6237 102.106 60.4928 99.3127L88.2027 83.4157C93.0718 80.6224 99.1858 81.2822 103.347 85.0502L127.029 106.493C131.19 110.261 132.452 116.28 130.155 121.403L117.081 150.552Z" fill="#FFAA00"/>
<path d="M92.9243 107.5C92.2279 106.286 91.9911 105.113 92.2138 103.983C92.4693 102.833 93.1544 101.939 94.2689 101.299C95.3835 100.66 96.485 100.529 97.5735 100.908C98.6948 101.268 99.6036 102.054 100.3 103.268C101.015 104.515 101.236 105.697 100.961 106.814C100.739 107.944 100.07 108.83 98.9554 109.469C97.8408 110.108 96.7229 110.248 95.6016 109.889C94.532 109.543 93.6395 108.747 92.9243 107.5ZM72.2724 119.348C71.576 118.134 71.3391 116.961 71.5619 115.831C71.8174 114.681 72.5024 113.787 73.617 113.147C74.7315 112.508 75.8331 112.377 76.9216 112.756C78.0428 113.115 78.9517 113.902 79.648 115.116C80.3633 116.363 80.5837 117.545 80.3094 118.662C80.0866 119.792 79.418 120.677 78.3034 121.317C77.1889 121.956 76.071 122.096 74.9497 121.736C73.88 121.391 72.9876 120.594 72.2724 119.348Z" fill="#171717"/>
<path d="M77.1049 149.988C75.5796 144.67 75.7617 139.747 77.6513 135.218C79.5408 130.689 82.9278 127.024 87.8121 124.222L96.663 119.144C99.8755 117.301 103.115 116.227 106.383 115.923C109.702 115.632 112.893 116.069 115.957 117.233C119.04 118.429 121.824 120.321 124.309 122.907L120.13 125.305C118.433 123.487 116.438 122.211 114.144 121.478C111.883 120.726 109.475 120.515 106.92 120.847C104.366 121.179 101.794 122.088 99.2038 123.573L90.353 128.651C87.8289 130.099 85.7695 131.825 84.1748 133.831C82.599 135.868 81.5649 138.053 81.0727 140.385C80.6321 142.731 80.7683 145.095 81.4811 147.477L77.1049 149.988Z" fill="#171717"/>
<path d="M163.164 176.776C156.837 180.775 148.655 180.246 142.896 175.464L118.459 155.172C112.7 150.39 110.676 142.444 113.443 135.49L125.189 105.977C127.957 99.0227 134.887 94.6417 142.356 95.1253L174.053 97.1775C181.522 97.6611 187.83 102.899 189.679 110.153L197.523 140.934C199.371 148.187 196.339 155.806 190.012 159.805L163.164 176.776Z" fill="#171717"/>
<path d="M160.846 173.281C156.101 176.28 149.964 175.883 145.645 172.296L121.067 151.887C116.748 148.301 115.23 142.342 117.305 137.126L129.119 107.443C131.194 102.227 136.393 98.9412 141.994 99.3039L173.874 101.368C179.475 101.731 184.207 105.659 185.593 111.099L193.482 142.058C194.868 147.498 192.594 153.212 187.849 156.211L160.846 173.281Z" fill="#5555FF"/>
<path d="M164.501 124.05C164.591 122.653 165.042 121.545 165.852 120.726C166.7 119.909 167.766 119.542 169.048 119.625C170.33 119.708 171.32 120.208 172.018 121.125C172.754 122.045 173.077 123.203 172.987 124.599C172.894 126.034 172.425 127.14 171.579 127.919C170.768 128.739 169.722 129.107 168.44 129.024C167.158 128.941 166.148 128.44 165.413 127.52C164.712 126.641 164.408 125.484 164.501 124.05ZM140.742 122.511C140.832 121.115 141.283 120.007 142.093 119.188C142.941 118.371 144.006 118.004 145.289 118.087C146.571 118.17 147.561 118.67 148.259 119.587C148.995 120.506 149.318 121.664 149.227 123.061C149.134 124.495 148.665 125.602 147.819 126.381C147.009 127.2 145.963 127.569 144.68 127.486C143.398 127.403 142.389 126.901 141.653 125.982C140.953 125.103 140.649 123.946 140.742 122.511Z" fill="#171717"/>
<path d="M127.839 150.718C129.506 145.444 132.378 141.442 136.456 138.711C140.533 135.981 145.381 134.797 151.001 135.161L161.183 135.82C164.879 136.06 168.173 136.955 171.064 138.507C173.991 140.099 176.409 142.227 178.32 144.89C180.228 147.591 181.504 150.706 182.146 154.235L177.338 153.923C176.928 151.471 175.97 149.305 174.463 147.426C172.994 145.55 171.104 144.044 168.791 142.908C166.479 141.773 163.833 141.109 160.853 140.916L150.671 140.257C147.767 140.069 145.096 140.37 142.659 141.16C140.22 141.987 138.151 143.237 136.452 144.908C134.789 146.62 133.596 148.665 132.874 151.044L127.839 150.718Z" fill="#171717"/>
<path d="M89.1936 191.659C88.3728 199.099 82.8551 205.164 75.5261 206.682L44.4236 213.125C37.0947 214.644 29.6215 211.27 25.9127 204.768L10.1734 177.177C6.46455 170.675 7.36366 162.525 12.4005 156.989L33.7755 133.493C38.8123 127.957 46.8411 126.294 53.6628 129.374L82.6126 142.444C89.4344 145.524 93.4973 152.646 92.6766 160.086L89.1936 191.659Z" fill="#171717"/>
<path d="M85.0157 191.29C84.4002 196.87 80.2619 201.419 74.7651 202.558L43.4833 209.038C37.9866 210.177 32.3818 207.646 29.6001 202.77L13.7701 175.02C10.9884 170.144 11.6628 164.031 15.4404 159.878L36.9386 136.248C40.7162 132.095 46.7379 130.848 51.8541 133.158L80.9709 146.303C86.0872 148.613 89.1344 153.955 88.5189 159.535L85.0157 191.29Z" fill="#FF5555"/>
<path d="M48.8194 157.723C47.7843 156.781 47.1993 155.738 47.0645 154.593C46.9551 153.42 47.3327 152.359 48.1974 151.409C49.0621 150.458 50.0705 149.996 51.2227 150.022C52.4002 150.021 53.5066 150.491 54.5417 151.433C55.6048 152.4 56.1771 153.457 56.2585 154.604C56.3933 155.749 56.0284 156.796 55.1637 157.747C54.299 158.697 53.2779 159.173 52.1003 159.175C50.9762 159.174 49.8825 158.69 48.8194 157.723ZM32.797 175.334C31.7618 174.393 31.1769 173.349 31.042 172.205C30.9326 171.032 31.3103 169.971 32.175 169.02C33.0397 168.07 34.0481 167.608 35.2002 167.634C36.3778 167.633 37.4841 168.103 38.5193 169.045C39.5824 170.012 40.1547 171.069 40.2361 172.216C40.3709 173.361 40.006 174.408 39.1413 175.359C38.2766 176.309 37.2554 176.785 36.0779 176.787C34.9537 176.786 33.8601 176.302 32.797 175.334Z" fill="#171717"/>
<path d="M46.7941 203.015C43.7115 198.422 42.3749 193.681 42.7843 188.79C43.1936 183.9 45.293 179.372 49.0824 175.207L55.9492 167.659C58.4416 164.919 61.1959 162.903 64.2123 161.611C67.282 160.317 70.4535 159.753 73.7267 159.921C77.028 160.115 80.258 161.061 83.4168 162.76L80.1742 166.324C78.0022 165.114 75.7119 164.512 73.3034 164.518C70.9203 164.496 68.5639 165.034 66.2343 166.134C63.9047 167.233 61.7353 168.887 59.7261 171.095L52.8593 178.643C50.901 180.796 49.4705 183.071 48.5677 185.468C47.6928 187.891 47.3788 190.288 47.6255 192.659C47.9257 195.027 48.7803 197.235 50.1893 199.283L46.7941 203.015Z" fill="#171717"/>
<path d="M136.88 227.905C131.908 233.499 123.899 235.256 117.042 232.256L87.9415 219.524C81.0844 216.524 76.9387 209.449 77.6727 202L80.7876 170.389C81.5215 162.94 86.9683 156.811 94.279 155.207L125.304 148.402C132.615 146.798 140.127 150.085 143.911 156.543L159.971 183.949C163.755 190.407 162.951 198.567 157.979 204.162L136.88 227.905Z" fill="#171717"/>
<path d="M133.685 225.187C129.956 229.383 123.949 230.701 118.806 228.451L89.5382 215.645C84.3953 213.395 81.286 208.089 81.8365 202.503L84.9694 170.709C85.5199 165.122 89.6049 160.525 95.088 159.323L126.292 152.478C131.775 151.276 137.409 153.741 140.247 158.584L156.4 186.148C159.238 190.991 158.635 197.112 154.906 201.308L133.685 225.187Z" fill="#55AA55"/>
<path d="M123.566 176.869C123.266 175.502 123.392 174.312 123.944 173.301C124.533 172.281 125.455 171.633 126.71 171.358C127.965 171.083 129.055 171.289 129.98 171.977C130.941 172.657 131.572 173.68 131.872 175.047C132.18 176.451 132.035 177.644 131.439 178.627C130.887 179.639 129.983 180.282 128.728 180.558C127.473 180.833 126.365 180.631 125.403 179.951C124.486 179.3 123.874 178.273 123.566 176.869ZM100.31 181.97C100.01 180.603 100.136 179.413 100.688 178.402C101.277 177.382 102.199 176.734 103.454 176.459C104.709 176.184 105.799 176.39 106.724 177.078C107.685 177.758 108.316 178.781 108.616 180.148C108.924 181.552 108.779 182.745 108.182 183.728C107.63 184.74 106.727 185.383 105.472 185.659C104.217 185.934 103.108 185.732 102.147 185.052C101.23 184.401 100.618 183.374 100.31 181.97Z" fill="#171717"/>
<path d="M95.7219 212.647C95.8632 207.117 97.5148 202.476 100.677 198.723C103.839 194.97 108.17 192.491 113.67 191.284L123.637 189.098C127.255 188.305 130.667 188.253 133.875 188.944C137.128 189.663 140.042 191.038 142.615 193.068C145.196 195.135 147.284 197.775 148.879 200.988L144.172 202.02C143.1 199.777 141.58 197.961 139.611 196.573C137.68 195.176 135.446 194.253 132.91 193.802C130.374 193.352 127.647 193.446 124.731 194.086L114.764 196.272C111.922 196.896 109.439 197.924 107.316 199.358C105.201 200.829 103.559 202.602 102.389 204.679C101.265 206.784 100.685 209.08 100.65 211.566L95.7219 212.647Z" fill="#171717"/>
<path d="M65.813 54.731C64.4176 56.6149 61.9679 57.3859 59.7451 56.6408L50.3121 53.4789C48.0894 52.7339 46.5991 50.6422 46.6208 48.2978L46.7128 38.3488C46.7345 36.0045 48.2632 33.9407 50.4993 33.2369L59.9892 30.25C62.2253 29.5462 64.6604 30.3624 66.0207 32.2718L71.7937 40.3747C73.1541 42.2841 73.1303 44.8523 71.7349 46.7362L65.813 54.731Z" fill="#171717"/>
<path d="M64.7406 53.9722C63.694 55.3851 61.8567 55.9634 60.1897 55.4046L50.7023 52.2245C49.0352 51.6657 47.9176 50.0969 47.9338 48.3386L48.0264 38.3323C48.0426 36.574 49.1891 35.0262 50.8663 34.4983L60.4108 31.4942C62.0879 30.9664 63.9142 31.5785 64.9345 33.0106L70.7408 41.1602C71.761 42.5923 71.7432 44.5184 70.6966 45.9313L64.7406 53.9722Z" fill="#FFAA00"/>
<path d="M60.2392 39.1795C60.1076 38.7613 60.1138 38.3868 60.2578 38.0558C60.4131 37.7212 60.6827 37.4935 61.0666 37.3727C61.4505 37.2519 61.7963 37.2859 62.1039 37.4747C62.4228 37.66 62.6481 37.9617 62.7797 38.3799C62.9148 38.8093 62.903 39.1857 62.7441 39.5089C62.6001 39.8399 62.3361 40.0658 61.9522 40.1867C61.5683 40.3075 61.2169 40.2753 60.898 40.09C60.5939 39.9124 60.3743 39.6089 60.2392 39.1795ZM53.1257 41.4184C52.9941 41.0003 53.0003 40.6257 53.1444 40.2947C53.2997 39.9601 53.5693 39.7324 53.9532 39.6116C54.3371 39.4908 54.6828 39.5248 54.9905 39.7136C55.3094 39.8989 55.5346 40.2007 55.6662 40.6188C55.8014 41.0482 55.7895 41.4246 55.6306 41.7478C55.4866 42.0788 55.2227 42.3048 54.8388 42.4256C54.4549 42.5464 54.1034 42.5142 53.7845 42.3289C53.4805 42.1514 53.2609 41.8479 53.1257 41.4184Z" fill="#171717"/>
<path d="M52.5481 51.1169C52.4382 49.3877 52.8243 47.8937 53.7064 46.6349C54.5884 45.3761 55.8706 44.4819 57.553 43.9524L60.6016 42.9928C61.7081 42.6446 62.7714 42.5335 63.7915 42.6595C64.8263 42.7934 65.7734 43.1411 66.6327 43.7029C67.4956 44.2759 68.2205 45.0414 68.8074 45.9993L67.3677 46.4524C66.9708 45.7825 66.4459 45.2583 65.7932 44.88C65.1519 44.4981 64.4293 44.2722 63.6254 44.2023C62.8216 44.1323 61.9737 44.2377 61.0817 44.5185L58.0331 45.478C57.1637 45.7517 56.4178 46.1417 55.7953 46.6481C55.1765 47.1658 54.7135 47.7649 54.4064 48.4453C54.1142 49.1335 53.9972 49.8659 54.0554 50.6424L52.5481 51.1169Z" fill="#171717"/>
<path d="M77.0797 65.0878C74.8757 65.8868 72.4079 65.1756 70.967 63.3263L64.8522 55.4781C63.4114 53.6287 63.3251 51.0619 64.6385 49.1199L70.2126 40.8788C71.526 38.9369 73.9405 38.0616 76.1931 38.7108L85.7528 41.4657C88.0055 42.1148 89.5839 44.1408 89.6627 46.4839L89.9969 56.4277C90.0757 58.7708 88.6368 60.8982 86.4328 61.6972L77.0797 65.0878Z" fill="#171717"/>
<path d="M76.6051 63.8628C74.9521 64.462 73.1013 63.9287 72.0207 62.5416L65.8706 54.6482C64.7899 53.2612 64.7252 51.336 65.7103 49.8796L71.3165 41.5909C72.3016 40.1345 74.1124 39.478 75.8019 39.9649L85.4167 42.7357C87.1062 43.2225 88.2901 44.742 88.3491 46.4994L88.6853 56.5005C88.7443 58.2578 87.6652 59.8533 86.0122 60.4526L76.6051 63.8628Z" fill="#5555FF"/>
<path d="M81.0272 49.0461C81.1485 48.6249 81.3607 48.3161 81.6636 48.1199C81.9779 47.9269 82.3284 47.8861 82.7152 47.9975C83.1019 48.109 83.3713 48.3284 83.5233 48.6558C83.6867 48.9865 83.7078 49.3624 83.5864 49.7836C83.4617 50.2162 83.2439 50.5234 82.9329 50.705C82.6299 50.9013 82.2851 50.9437 81.8984 50.8322C81.5116 50.7208 81.2366 50.4997 81.0732 50.1691C80.9178 49.853 80.9025 49.4787 81.0272 49.0461ZM73.8613 46.9811C73.9827 46.5599 74.1948 46.2511 74.4978 46.0548C74.8121 45.8618 75.1626 45.821 75.5493 45.9325C75.9361 46.0439 76.2054 46.2634 76.3575 46.5908C76.5209 46.9214 76.5419 47.2974 76.4205 47.7186C76.2959 48.1512 76.078 48.4583 75.767 48.6399C75.4641 48.8362 75.1193 48.8786 74.7325 48.7672C74.3458 48.6557 74.0707 48.4347 73.9073 48.104C73.752 47.788 73.7367 47.4137 73.8613 46.9811Z" fill="#171717"/>
<path d="M68.021 54.7451C68.8849 53.2432 70.0322 52.2114 71.4629 51.6497C72.8936 51.0879 74.4563 51.0512 76.1511 51.5396L79.2222 52.4247C80.3368 52.7459 81.2844 53.2409 82.0649 53.9097C82.8535 54.5931 83.4507 55.4064 83.8565 56.3494C84.259 57.3038 84.4402 58.3424 84.4 59.4652L82.9498 59.0472C82.9891 58.2695 82.8413 57.5426 82.5064 56.8666C82.1828 56.1938 81.7054 55.6062 81.0741 55.1037C80.4428 54.6012 79.6779 54.2205 78.7793 53.9615L75.7082 53.0765C74.8324 52.8241 73.9952 52.737 73.1966 52.8151C72.3947 52.9046 71.6779 53.148 71.046 53.5454C70.4222 53.9575 69.92 54.5032 69.5394 55.1827L68.021 54.7451Z" fill="#171717"/>
<path d="M53.4501 64.6773C52.6998 66.8985 50.6046 68.3838 48.2605 68.3565L38.3124 68.2405C35.9683 68.2132 33.9083 66.6795 33.2099 64.4414L30.2461 54.9439C29.5477 52.7058 30.3697 50.2726 32.2822 48.9168L40.3985 43.1629C42.311 41.807 44.879 41.837 46.7594 43.237L54.7394 49.1785C56.6198 50.5786 57.3849 53.0303 56.6345 55.2514L53.4501 64.6773Z" fill="#171717"/>
<path d="M52.1967 64.2841C51.6339 65.95 50.0626 67.0639 48.3045 67.0435L38.2991 66.9268C36.541 66.9064 34.996 65.756 34.4722 64.0775L31.4912 54.5252C30.9674 52.8467 31.584 51.0218 33.0183 50.0049L41.1814 44.2178C42.6158 43.2009 44.5418 43.2234 45.9521 44.2734L53.9781 50.2492C55.3884 51.2992 55.9622 53.138 55.3994 54.8038L52.1967 64.2841Z" fill="#FF5555"/>
<path d="M43.3752 51.5853C43.1217 51.2276 43.0127 50.8692 43.0483 50.51C43.0935 50.1439 43.2803 49.8445 43.6086 49.6117C43.9369 49.379 44.2765 49.3053 44.6272 49.3906C44.9876 49.4692 45.2945 49.6873 45.548 50.0449C45.8083 50.4122 45.9125 50.774 45.8604 51.1304C45.8248 51.4896 45.6429 51.7856 45.3146 52.0184C44.9862 52.2512 44.6419 52.3283 44.2815 52.2498C43.9376 52.174 43.6355 51.9525 43.3752 51.5853ZM37.2913 55.8983C37.0378 55.5407 36.9289 55.1823 36.9644 54.823C37.0096 54.457 37.1964 54.1575 37.5248 53.9248C37.8531 53.692 38.1926 53.6183 38.5433 53.7037C38.9037 53.7822 39.2106 54.0003 39.4641 54.3579C39.7245 54.7252 39.8286 55.0871 39.7766 55.4435C39.741 55.8027 39.559 56.0987 39.2307 56.3315C38.9024 56.5642 38.558 56.6413 38.1977 56.5628C37.8538 56.4871 37.5517 56.2656 37.2913 55.8983Z" fill="#171717"/>
<path d="M39.7161 65.3064C39.0813 63.6943 38.9905 62.1539 39.4439 60.6852C39.8974 59.2165 40.8435 57.9721 42.2824 56.952L44.8897 55.1036C45.8361 54.4327 46.8141 54.0008 47.8236 53.8079C48.8497 53.6178 49.8578 53.6583 50.8479 53.9294C51.8449 54.2101 52.7697 54.7163 53.6221 55.4481L52.3908 56.3209C51.8075 55.805 51.1472 55.4672 50.4099 55.3073C49.6823 55.1405 48.9253 55.1472 48.1388 55.3272C47.3523 55.5072 46.5776 55.8676 45.8147 56.4084L43.2073 58.2569C42.4637 58.784 41.8734 59.3841 41.4363 60.057C41.006 60.7396 40.7491 61.4518 40.6655 62.1936C40.5984 62.9383 40.7117 63.6712 41.0053 64.3925L39.7161 65.3064Z" fill="#171717"/>
<path d="M65.6072 78.9665C63.7106 80.3445 61.1424 80.3445 59.2459 78.9665L51.1972 73.1184C49.3006 71.7403 48.507 69.2977 49.2314 67.068L52.3057 57.6056C53.0302 55.3758 55.1079 53.8662 57.4522 53.8662H67.4009C69.7452 53.8662 71.8229 55.3758 72.5473 57.6056L75.6216 67.068C76.3461 69.2977 75.5525 71.7403 73.6559 73.1184L65.6072 78.9665Z" fill="#171717"/>
<path d="M64.812 77.9207C63.3896 78.9543 61.4635 78.9543 60.041 77.9207L51.9459 72.0389C50.5235 71.0054 49.9283 69.1734 50.4716 67.5011L53.5637 57.9842C54.107 56.3119 55.6653 55.1796 57.4235 55.1796H67.4296C69.1878 55.1796 70.7461 56.3119 71.2894 57.9842L74.3814 67.5011C74.9248 69.1734 74.3296 71.0054 72.9071 72.0389L64.812 77.9207Z" fill="#55AA55"/>
<path d="M64.9588 62.4589C64.9588 62.0205 65.0772 61.6651 65.3139 61.3926C65.5625 61.1201 65.888 60.9839 66.2905 60.9839C66.693 60.9839 67.0126 61.1201 67.2493 61.3926C67.4979 61.6651 67.6222 62.0205 67.6222 62.4589C67.6222 62.9091 67.4979 63.2645 67.2493 63.5252C67.0126 63.7977 66.693 63.9339 66.2905 63.9339C65.888 63.9339 65.5625 63.7977 65.3139 63.5252C65.0772 63.2645 64.9588 62.9091 64.9588 62.4589ZM57.5014 62.4589C57.5014 62.0205 57.6198 61.6651 57.8565 61.3926C58.1051 61.1201 58.4306 60.9839 58.8331 60.9839C59.2355 60.9839 59.5551 61.1201 59.7919 61.3926C60.0405 61.6651 60.1648 62.0205 60.1648 62.4589C60.1648 62.9091 60.0405 63.2645 59.7919 63.5252C59.5551 63.7977 59.2355 63.9339 58.8331 63.9339C58.4306 63.9339 58.1051 63.7977 57.8565 63.5252C57.6198 63.2645 57.5014 62.9091 57.5014 62.4589Z" fill="#171717"/>
<path d="M54.039 71.5366C54.4533 69.8542 55.2701 68.545 56.4893 67.6091C57.7086 66.6731 59.2001 66.2051 60.9638 66.2051H64.1598C65.3199 66.2051 66.3675 66.4184 67.3026 66.8449C68.2496 67.2833 69.0486 67.8993 69.6996 68.6931C70.3507 69.4988 70.8123 70.4466 71.0846 71.5366H69.5753C69.3978 70.7783 69.0545 70.1208 68.5455 69.5639C68.0483 69.0071 67.4269 68.5747 66.6812 68.2666C65.9354 67.9586 65.095 67.8046 64.1598 67.8046H60.9638C60.0523 67.8046 59.2237 67.9527 58.478 68.2489C57.7322 68.5569 57.1108 68.9893 56.6136 69.5462C56.1283 70.1148 55.7969 70.7783 55.6193 71.5366H54.039Z" fill="#171717"/>
<path d="M138.187 251.269C139.582 249.385 142.032 248.614 144.255 249.359L153.688 252.521C155.911 253.266 157.401 255.358 157.379 257.702L157.287 267.651C157.266 269.996 155.737 272.059 153.501 272.763L144.011 275.75C141.775 276.454 139.34 275.638 137.979 273.728L132.206 265.625C130.846 263.716 130.87 261.148 132.265 259.264L138.187 251.269Z" fill="#171717"/>
<path d="M139.259 252.028C140.306 250.615 142.143 250.037 143.81 250.595L153.298 253.776C154.965 254.334 156.082 255.903 156.066 257.661L155.974 267.668C155.957 269.426 154.811 270.974 153.134 271.502L143.589 274.506C141.912 275.034 140.086 274.421 139.066 272.989L133.259 264.84C132.239 263.408 132.257 261.482 133.303 260.069L139.259 252.028Z" fill="#FFAA00"/>
<path d="M143.761 266.82C143.892 267.239 143.886 267.613 143.742 267.944C143.587 268.279 143.317 268.506 142.933 268.627C142.549 268.748 142.204 268.714 141.896 268.525C141.577 268.34 141.352 268.038 141.22 267.62C141.085 267.191 141.097 266.814 141.256 266.491C141.4 266.16 141.664 265.934 142.048 265.813C142.432 265.692 142.783 265.725 143.102 265.91C143.406 266.088 143.626 266.391 143.761 266.82ZM150.874 264.582C151.006 265 151 265.374 150.856 265.705C150.7 266.04 150.431 266.268 150.047 266.388C149.663 266.509 149.317 266.475 149.01 266.286C148.691 266.101 148.465 265.799 148.334 265.381C148.199 264.952 148.21 264.575 148.369 264.252C148.513 263.921 148.777 263.695 149.161 263.574C149.545 263.454 149.897 263.486 150.215 263.671C150.52 263.849 150.739 264.152 150.874 264.582Z" fill="#171717"/>
<path d="M151.452 254.883C151.562 256.612 151.176 258.106 150.294 259.365C149.412 260.624 148.129 261.518 146.447 262.048L143.398 263.007C142.292 263.355 141.229 263.467 140.209 263.34C139.174 263.207 138.227 262.859 137.367 262.297C136.504 261.724 135.78 260.959 135.193 260.001L136.632 259.548C137.029 260.218 137.554 260.742 138.207 261.12C138.848 261.502 139.571 261.728 140.375 261.798C141.178 261.868 142.026 261.762 142.918 261.482L145.967 260.522C146.836 260.248 147.582 259.858 148.205 259.352C148.824 258.834 149.287 258.235 149.594 257.555C149.886 256.867 150.003 256.134 149.945 255.358L151.452 254.883Z" fill="#171717"/>
<path d="M126.92 240.912C129.124 240.113 131.592 240.824 133.033 242.674L139.148 250.522C140.589 252.371 140.675 254.938 139.361 256.88L133.787 265.121C132.474 267.063 130.06 267.938 127.807 267.289L118.247 264.534C115.995 263.885 114.416 261.859 114.337 259.516L114.003 249.572C113.924 247.229 115.363 245.102 117.567 244.303L126.92 240.912Z" fill="#171717"/>
<path d="M127.395 242.137C129.048 241.538 130.899 242.071 131.979 243.458L138.129 251.352C139.21 252.739 139.275 254.664 138.29 256.12L132.684 264.409C131.698 265.866 129.888 266.522 128.198 266.035L118.583 263.264C116.894 262.777 115.71 261.258 115.651 259.501L115.315 249.5C115.256 247.742 116.335 246.147 117.988 245.547L127.395 242.137Z" fill="#5555FF"/>
<path d="M122.973 256.954C122.851 257.375 122.639 257.684 122.336 257.88C122.022 258.073 121.672 258.114 121.285 258.002C120.898 257.891 120.629 257.672 120.477 257.344C120.313 257.014 120.292 256.638 120.414 256.216C120.538 255.784 120.756 255.477 121.067 255.295C121.37 255.099 121.715 255.056 122.102 255.168C122.488 255.279 122.763 255.5 122.927 255.831C123.082 256.147 123.097 256.521 122.973 256.954ZM130.139 259.019C130.017 259.44 129.805 259.749 129.502 259.945C129.188 260.138 128.837 260.179 128.451 260.068C128.064 259.956 127.795 259.737 127.643 259.409C127.479 259.079 127.458 258.703 127.579 258.281C127.704 257.849 127.922 257.542 128.233 257.36C128.536 257.164 128.881 257.121 129.267 257.233C129.654 257.344 129.929 257.565 130.093 257.896C130.248 258.212 130.263 258.586 130.139 259.019Z" fill="#171717"/>
<path d="M135.979 251.255C135.115 252.757 133.968 253.789 132.537 254.35C131.106 254.912 129.544 254.949 127.849 254.46L124.778 253.575C123.663 253.254 122.716 252.759 121.935 252.09C121.147 251.407 120.549 250.594 120.144 249.651C119.741 248.696 119.56 247.658 119.6 246.535L121.05 246.953C121.011 247.731 121.159 248.457 121.494 249.133C121.817 249.806 122.295 250.394 122.926 250.896C123.557 251.399 124.322 251.78 125.221 252.038L128.292 252.923C129.168 253.176 130.005 253.263 130.803 253.185C131.605 253.095 132.322 252.852 132.954 252.455C133.578 252.043 134.08 251.497 134.461 250.817L135.979 251.255Z" fill="#171717"/>
<path d="M150.55 241.323C151.3 239.102 153.395 237.616 155.74 237.644L165.688 237.759C168.032 237.787 170.092 239.321 170.79 241.559L173.754 251.056C174.452 253.294 173.63 255.727 171.718 257.083L163.602 262.837C161.689 264.193 159.121 264.163 157.241 262.763L149.261 256.822C147.38 255.421 146.615 252.97 147.365 250.749L150.55 241.323Z" fill="#171717"/>
<path d="M151.803 241.716C152.366 240.05 153.937 238.936 155.696 238.957L165.701 239.073C167.459 239.094 169.004 240.244 169.528 241.922L172.509 251.475C173.033 253.153 172.416 254.978 170.982 255.995L162.819 261.782C161.384 262.799 159.458 262.777 158.048 261.727L150.022 255.751C148.612 254.701 148.038 252.862 148.601 251.196L151.803 241.716Z" fill="#FF5555"/>
<path d="M160.625 254.415C160.878 254.772 160.987 255.131 160.952 255.49C160.907 255.856 160.72 256.156 160.391 256.388C160.063 256.621 159.724 256.695 159.373 256.609C159.012 256.531 158.706 256.313 158.452 255.955C158.192 255.588 158.088 255.226 158.14 254.87C158.175 254.51 158.357 254.214 158.685 253.982C159.014 253.749 159.358 253.672 159.718 253.75C160.062 253.826 160.364 254.047 160.625 254.415ZM166.709 250.102C166.962 250.459 167.071 250.818 167.036 251.177C166.99 251.543 166.804 251.842 166.475 252.075C166.147 252.308 165.807 252.382 165.457 252.296C165.096 252.218 164.789 252 164.536 251.642C164.276 251.275 164.171 250.913 164.223 250.557C164.259 250.197 164.441 249.901 164.769 249.669C165.098 249.436 165.442 249.359 165.802 249.437C166.146 249.513 166.448 249.734 166.709 250.102Z" fill="#171717"/>
<path d="M164.284 240.694C164.919 242.306 165.009 243.846 164.556 245.315C164.103 246.783 163.157 248.028 161.718 249.048L159.11 250.896C158.164 251.567 157.186 251.999 156.176 252.192C155.15 252.382 154.142 252.342 153.152 252.071C152.155 251.79 151.23 251.284 150.378 250.552L151.609 249.679C152.193 250.195 152.853 250.533 153.59 250.693C154.318 250.859 155.075 250.853 155.861 250.673C156.648 250.493 157.422 250.132 158.185 249.592L160.793 247.743C161.536 247.216 162.127 246.616 162.564 245.943C162.994 245.26 163.251 244.548 163.335 243.806C163.402 243.062 163.288 242.329 162.995 241.607L164.284 240.694Z" fill="#171717"/>
<path d="M138.393 227.034C140.289 225.655 142.858 225.655 144.754 227.034L152.803 232.882C154.699 234.26 155.493 236.702 154.769 238.932L151.694 248.394C150.97 250.624 148.892 252.134 146.548 252.134H136.599C134.255 252.134 132.177 250.624 131.453 248.394L128.378 238.932C127.654 236.702 128.448 234.26 130.344 232.882L138.393 227.034Z" fill="#171717"/>
<path d="M139.188 228.079C140.61 227.046 142.537 227.046 143.959 228.079L152.054 233.961C153.476 234.995 154.072 236.827 153.528 238.499L150.436 248.016C149.893 249.688 148.335 250.82 146.577 250.82H136.57C134.812 250.82 133.254 249.688 132.711 248.016L129.619 238.499C129.075 236.827 129.67 234.995 131.093 233.961L139.188 228.079Z" fill="#55AA55"/>
<path d="M139.041 243.541C139.041 243.979 138.923 244.335 138.686 244.607C138.437 244.88 138.112 245.016 137.709 245.016C137.307 245.016 136.987 244.88 136.751 244.607C136.502 244.335 136.378 243.979 136.378 243.541C136.378 243.091 136.502 242.735 136.751 242.475C136.987 242.202 137.307 242.066 137.709 242.066C138.112 242.066 138.437 242.202 138.686 242.475C138.923 242.735 139.041 243.091 139.041 243.541ZM146.499 243.541C146.499 243.979 146.38 244.335 146.143 244.607C145.895 244.88 145.569 245.016 145.167 245.016C144.764 245.016 144.445 244.88 144.208 244.607C143.96 244.335 143.835 243.979 143.835 243.541C143.835 243.091 143.96 242.735 144.208 242.475C144.445 242.202 144.764 242.066 145.167 242.066C145.569 242.066 145.895 242.202 146.143 242.475C146.38 242.735 146.499 243.091 146.499 243.541Z" fill="#171717"/>
<path d="M149.961 234.463C149.547 236.146 148.73 237.455 147.511 238.391C146.291 239.327 144.8 239.795 143.036 239.795H139.84C138.68 239.795 137.633 239.582 136.697 239.155C135.75 238.717 134.951 238.101 134.3 237.307C133.649 236.501 133.188 235.553 132.915 234.463H134.425C134.602 235.222 134.945 235.879 135.454 236.436C135.952 236.993 136.573 237.425 137.319 237.733C138.065 238.041 138.905 238.195 139.84 238.195H143.036C143.948 238.195 144.776 238.047 145.522 237.751C146.268 237.443 146.889 237.011 147.386 236.454C147.872 235.885 148.203 235.222 148.381 234.463H149.961Z" fill="#171717"/>
</svg>
