<svg width="204" height="306" viewBox="0 0 204 306" fill="none" xmlns="http://www.w3.org/2000/svg">
<path d="M0 30.6C0 13.7001 13.7001 0 30.6 0H173.4C190.3 0 204 13.7001 204 30.6V275.4C204 292.3 190.3 306 173.4 306H30.6C13.7001 306 0 292.3 0 275.4V30.6Z" fill="#171717"/>
<path d="M2.04 32.232C2.04 15.5574 15.4661 2.04 32.028 2.04H171.972C188.534 2.04 201.96 15.5574 201.96 32.232V273.768C201.96 290.443 188.534 303.96 171.972 303.96H32.028C15.4661 303.96 2.04 290.443 2.04 273.768V32.232Z" fill="#F3F3F3"/>
<path d="M17.034 37.264C17.034 26.1476 25.9847 17.136 37.026 17.136H166.974C178.015 17.136 186.966 26.1476 186.966 37.264V268.736C186.966 279.852 178.015 288.864 166.974 288.864H37.026C25.9847 288.864 17.034 279.852 17.034 268.736V37.264Z" fill="#171717"/>
<path d="M183.24 71.2374C207.936 95.9342 191.468 152.444 146.456 197.456C101.444 242.468 44.9342 258.936 20.2374 234.24C-4.45932 209.543 12.0093 153.033 57.0211 108.021C102.033 63.0093 158.543 46.5407 183.24 71.2374Z" fill="#F3F3F3"/>
<path d="M98.6916 80.9998H67.0805C62.716 80.9998 58.2746 84.1442 57.1604 88.023L41.0878 143.976C39.9736 147.855 42.6085 151 46.9731 151H78.5842C82.9488 151 87.3902 147.855 88.5044 143.976L104.577 88.023C105.691 84.1442 103.056 80.9998 98.6916 80.9998Z" fill="#F3F3F3"/>
<path d="M97.9667 81.7605H67.3684C63.1437 81.7605 58.8353 84.8365 57.7453 88.631L42.0221 143.368C40.9321 147.163 43.4733 150.239 47.698 150.239H78.2963C82.521 150.239 86.8295 147.163 87.9195 143.368L103.643 88.631C104.733 84.8365 102.191 81.7605 97.9667 81.7605Z" fill="#F3F3F3"/>
<path d="M88.1315 89.3694H72.8324C68.6077 89.3694 64.2992 92.4454 63.2093 96.2399L51.8572 135.76C50.7672 139.554 53.3085 142.63 57.5332 142.63H72.8324C77.0571 142.63 81.3655 139.554 82.4555 135.76L93.8075 96.2399C94.8975 92.4454 92.3562 89.3694 88.1315 89.3694Z" fill="#171717"/>
<path d="M71.5391 133.706H40.0113C35.6583 133.706 31.2286 136.866 30.1173 140.764L14.0871 197C12.9759 200.898 15.6039 204.059 19.9569 204.059H51.4847C55.8378 204.059 60.2675 200.898 61.3787 197L77.4089 140.764C78.5202 136.866 75.8922 133.706 71.5391 133.706Z" fill="#171717"/>
<path d="M70.8161 134.47H40.2985C36.0849 134.47 31.7878 137.562 30.7007 141.375L15.0189 196.389C13.9318 200.202 16.4663 203.294 20.6799 203.294H51.1975C55.4111 203.294 59.7082 200.202 60.7953 196.389L76.4771 141.375C77.5642 137.562 75.0297 134.47 70.8161 134.47Z" fill="#F3F3F3"/>
<path d="M61.0068 142.118H45.748C41.5344 142.118 37.2374 145.209 36.1503 149.023L24.8281 188.742C23.741 192.555 26.2756 195.647 30.4892 195.647H45.748C49.9616 195.647 54.2587 192.555 55.3457 188.742L66.6679 149.023C67.755 145.209 65.2204 142.118 61.0068 142.118Z" fill="#FF5555"/>
<path d="M102.82 110H71.2919C66.9388 110 62.5091 113.16 61.3979 117.058L45.3677 173.294C44.2564 177.192 46.8844 180.353 51.2375 180.353H82.7652C87.1183 180.353 91.548 177.192 92.6593 173.294L108.689 117.058C109.801 113.16 107.173 110 102.82 110Z" fill="#171717"/>
<path d="M102.097 110.764H71.579C67.3654 110.764 63.0684 113.856 61.9813 117.669L46.2995 172.683C45.2124 176.496 47.7469 179.588 51.9605 179.588H82.4781C86.6917 179.588 90.9888 176.496 92.0759 172.683L107.758 117.669C108.845 113.856 106.31 110.764 102.097 110.764Z" fill="#F3F3F3"/>
<path d="M92.2874 118.412H77.0286C72.815 118.412 68.5179 121.503 67.4308 125.317L56.1087 165.036C55.0216 168.85 57.5562 171.941 61.7697 171.941H77.0285C81.2421 171.941 85.5392 168.85 86.6263 165.036L97.9484 125.317C99.0355 121.503 96.5009 118.412 92.2874 118.412Z" fill="#5555FF"/>
<path d="M93.6643 156.647H62.1366C57.7835 156.647 53.3538 159.807 52.2426 163.706L36.2124 219.941C35.1011 223.839 37.7291 227 42.0822 227H73.6099C77.963 227 82.3927 223.839 83.504 219.941L99.5342 163.706C100.645 159.807 98.0174 156.647 93.6643 156.647Z" fill="#171717"/>
<path d="M92.9413 157.411H62.4237C58.2101 157.411 53.9131 160.503 52.826 164.317L37.1442 219.33C36.0571 223.144 38.5916 226.235 42.8052 226.235H73.3228C77.5364 226.235 81.8335 223.144 82.9206 219.33L98.6024 164.317C99.6895 160.503 97.1549 157.411 92.9413 157.411Z" fill="#F3F3F3"/>
<path d="M83.1321 165.059H67.8733C63.6597 165.059 59.3626 168.15 58.2755 171.964L46.9534 211.683C45.8663 215.497 48.4009 218.588 52.6145 218.588H67.8733C72.0868 218.588 76.3839 215.497 77.471 211.683L88.7931 171.964C89.8802 168.15 87.3457 165.059 83.1321 165.059Z" fill="#FFAA00"/>
<path d="M125.708 133.706H94.1801C89.827 133.706 85.3973 136.866 84.2861 140.764L68.2559 197C67.1446 200.898 69.7726 204.059 74.1257 204.059H105.653C110.006 204.059 114.436 200.898 115.547 197L131.578 140.764C132.689 136.866 130.061 133.706 125.708 133.706Z" fill="#171717"/>
<path d="M124.985 134.47H94.4672C90.2536 134.47 85.9566 137.562 84.8695 141.375L69.1877 196.389C68.1006 200.202 70.6351 203.294 74.8487 203.294H105.366C109.58 203.294 113.877 200.202 114.964 196.389L130.646 141.375C131.733 137.562 129.198 134.47 124.985 134.47Z" fill="#F3F3F3"/>
<path d="M115.176 142.118H99.9168C95.7032 142.118 91.4061 145.209 90.319 149.023L78.9969 188.742C77.9098 192.555 80.4444 195.647 84.6579 195.647H99.9167C104.13 195.647 108.427 192.555 109.514 188.742L120.837 149.023C121.924 145.209 119.389 142.118 115.176 142.118Z" fill="#55AA55"/>
<path d="M130.539 96.7058H99.0113C94.6583 96.7058 90.2286 99.8659 89.1173 103.764L73.0871 160C71.9759 163.898 74.6039 167.059 78.9569 167.059H110.485C114.838 167.059 119.267 163.898 120.379 160L136.409 103.764C137.52 99.8659 134.892 96.7058 130.539 96.7058Z" fill="#171717"/>
<path d="M129.816 97.4703H99.2985C95.0849 97.4703 90.7878 100.562 89.7007 104.375L74.0189 159.389C72.9318 163.202 75.4663 166.294 79.6799 166.294H110.198C114.411 166.294 118.708 163.202 119.795 159.389L135.477 104.375C136.564 100.562 134.03 97.4703 129.816 97.4703Z" fill="#F3F3F3"/>
<path d="M120.007 105.118H104.748C100.534 105.118 96.2374 108.209 95.1503 112.023L83.8281 151.742C82.741 155.555 85.2756 158.647 89.4892 158.647H104.748C108.962 158.647 113.259 155.555 114.346 151.742L125.668 112.023C126.755 108.209 124.22 105.118 120.007 105.118Z" fill="#FF5555"/>
<path d="M161.82 72.9998H130.292C125.939 72.9998 121.509 76.16 120.398 80.0584L104.368 136.294C103.256 140.192 105.884 143.353 110.237 143.353H141.765C146.118 143.353 150.548 140.192 151.659 136.294L167.689 80.0584C168.801 76.16 166.173 72.9998 161.82 72.9998Z" fill="#171717"/>
<path d="M161.097 73.7643H130.579C126.365 73.7643 122.068 76.8558 120.981 80.6695L105.299 135.683C104.212 139.496 106.747 142.588 110.96 142.588H141.478C145.692 142.588 149.989 139.496 151.076 135.683L166.758 80.6695C167.845 76.8558 165.31 73.7643 161.097 73.7643Z" fill="#F3F3F3"/>
<path d="M151.287 81.4116H136.029C131.815 81.4116 127.518 84.5031 126.431 88.3167L115.109 128.036C114.022 131.85 116.556 134.941 120.77 134.941H136.029C140.242 134.941 144.539 131.85 145.626 128.036L156.948 88.3167C158.035 84.5031 155.501 81.4116 151.287 81.4116Z" fill="#5555FF"/>
<path d="M152.664 119.647H121.137C116.784 119.647 112.354 122.807 111.243 126.706L95.2124 182.941C94.1011 186.839 96.7291 190 101.082 190H132.61C136.963 190 141.393 186.839 142.504 182.941L158.534 126.706C159.645 122.807 157.017 119.647 152.664 119.647Z" fill="#171717"/>
<path d="M151.941 120.412H121.424C117.21 120.412 112.913 123.503 111.826 127.317L96.1442 182.33C95.0571 186.144 97.5916 189.235 101.805 189.235H132.323C136.536 189.235 140.833 186.144 141.921 182.33L157.602 127.317C158.689 123.503 156.155 120.412 151.941 120.412Z" fill="#F3F3F3"/>
<path d="M142.132 128.059H126.873C122.66 128.059 118.363 131.15 117.276 134.964L105.953 174.683C104.866 178.497 107.401 181.588 111.614 181.588H126.873C131.087 181.588 135.384 178.497 136.471 174.683L147.793 134.964C148.88 131.15 146.346 128.059 142.132 128.059Z" fill="#FFAA00"/>
<path d="M184.708 96.7058H153.18C148.827 96.7058 144.397 99.8659 143.286 103.764L127.256 160C126.145 163.898 128.773 167.059 133.126 167.059H164.653C169.006 167.059 173.436 163.898 174.547 160L190.578 103.764C191.689 99.8659 189.061 96.7058 184.708 96.7058Z" fill="#171717"/>
<path d="M183.985 97.4703H153.467C149.254 97.4703 144.957 100.562 143.869 104.375L128.188 159.389C127.101 163.202 129.635 166.294 133.849 166.294H164.366C168.58 166.294 172.877 163.202 173.964 159.389L189.646 104.375C190.733 100.562 188.198 97.4703 183.985 97.4703Z" fill="#F3F3F3"/>
<path d="M174.176 105.118H158.917C154.703 105.118 150.406 108.209 149.319 112.023L137.997 151.742C136.91 155.555 139.444 158.647 143.658 158.647H158.917C163.13 158.647 167.427 155.555 168.514 151.742L179.837 112.023C180.924 108.209 178.389 105.118 174.176 105.118Z" fill="#55AA55"/>
<path d="M139.692 163H108.081C103.716 163 99.2746 166.144 98.1604 170.023L82.0878 225.976C80.9736 229.855 83.6085 233 87.9731 233H119.584C123.949 233 128.39 229.855 129.504 225.976L145.577 170.023C146.691 166.144 144.056 163 139.692 163Z" fill="#F3F3F3"/>
<path d="M138.967 163.76H108.368C104.144 163.76 99.8353 166.836 98.7453 170.631L83.0221 225.368C81.9321 229.163 84.4733 232.239 88.698 232.239H119.296C123.521 232.239 127.83 229.163 128.919 225.368L144.643 170.631C145.733 166.836 143.191 163.76 138.967 163.76Z" fill="#F3F3F3"/>
<path d="M129.132 171.369H113.832C109.608 171.369 105.299 174.445 104.209 178.24L92.8572 217.76C91.7672 221.554 94.3085 224.63 98.5332 224.63H113.832C118.057 224.63 122.366 221.554 123.455 217.76L134.808 178.24C135.898 174.445 133.356 171.369 129.132 171.369Z" fill="#171717"/>
<path d="M38.9133 60.1V51H30V47.2667H38.9133V38.1667H43.02V47.2667H51.9333V51H43.02V60.1H38.9133Z" fill="#F3F3F3"/>
<path d="M52.4594 64.5333V60.7067H61.6994V33.9667L52.4594 40.8733V36.2067L60.1594 30.4667H65.8994V60.7067H73.4594V64.5333H52.4594Z" fill="#F3F3F3"/>
<path d="M86.9331 65C84.8487 65 83.0287 64.5956 81.4731 63.7867C79.9487 62.9467 78.7664 61.78 77.9264 60.2867C77.0864 58.7622 76.6664 56.9889 76.6664 54.9667V40.0333C76.6664 37.98 77.0864 36.2067 77.9264 34.7133C78.7664 33.22 79.9487 32.0689 81.4731 31.26C83.0287 30.42 84.8487 30 86.9331 30C89.0487 30 90.8687 30.42 92.3931 31.26C93.9175 32.0689 95.0998 33.22 95.9398 34.7133C96.7798 36.2067 97.1998 37.98 97.1998 40.0333V54.9667C97.1998 56.9889 96.7798 58.7622 95.9398 60.2867C95.0998 61.78 93.902 62.9467 92.3464 63.7867C90.822 64.5956 89.0175 65 86.9331 65ZM86.9331 61.4067C88.7998 61.4067 90.2931 60.8156 91.4131 59.6333C92.5642 58.42 93.1398 56.8644 93.1398 54.9667V40.0333C93.1398 38.1356 92.5642 36.5956 91.4131 35.4133C90.2931 34.2 88.7998 33.5933 86.9331 33.5933C85.0664 33.5933 83.5576 34.2 82.4064 35.4133C81.2864 36.5956 80.7264 38.1356 80.7264 40.0333V54.9667C80.7264 56.8644 81.2864 58.42 82.4064 59.6333C83.5576 60.8156 85.0664 61.4067 86.9331 61.4067ZM86.9331 50.2533C86.0931 50.2533 85.4087 49.9889 84.8798 49.46C84.382 48.9311 84.1331 48.2311 84.1331 47.36C84.1331 46.52 84.382 45.8511 84.8798 45.3533C85.4087 44.8244 86.0931 44.56 86.9331 44.56C87.7731 44.56 88.442 44.8244 88.9398 45.3533C89.4687 45.8511 89.7331 46.52 89.7331 47.36C89.7331 48.2311 89.4687 48.9311 88.9398 49.46C88.442 49.9889 87.7731 50.2533 86.9331 50.2533Z" fill="#F3F3F3"/>
<path d="M165.086 245.9V255H174V258.733H165.086V267.833H160.98V258.733H152.066V255H160.98V245.9H165.086Z" fill="#F3F3F3"/>
<path d="M151.54 241.467V245.293H142.3V272.033L151.54 265.127V269.793L143.84 275.533H138.1V245.293H130.54V241.467H151.54Z" fill="#F3F3F3"/>
<path d="M117.067 241C119.151 241 120.971 241.404 122.527 242.213C124.051 243.053 125.233 244.22 126.073 245.713C126.913 247.238 127.333 249.011 127.333 251.033V265.967C127.333 268.02 126.913 269.793 126.073 271.287C125.233 272.78 124.051 273.931 122.527 274.74C120.971 275.58 119.151 276 117.067 276C114.951 276 113.131 275.58 111.607 274.74C110.082 273.931 108.9 272.78 108.06 271.287C107.22 269.793 106.8 268.02 106.8 265.967V251.033C106.8 249.011 107.22 247.238 108.06 245.713C108.9 244.22 110.098 243.053 111.653 242.213C113.178 241.404 114.982 241 117.067 241ZM117.067 244.593C115.2 244.593 113.707 245.184 112.587 246.367C111.436 247.58 110.86 249.136 110.86 251.033V265.967C110.86 267.864 111.436 269.404 112.587 270.587C113.707 271.8 115.2 272.407 117.067 272.407C118.933 272.407 120.442 271.8 121.593 270.587C122.713 269.404 123.273 267.864 123.273 265.967V251.033C123.273 249.136 122.713 247.58 121.593 246.367C120.442 245.184 118.933 244.593 117.067 244.593ZM117.067 255.747C117.907 255.747 118.591 256.011 119.12 256.54C119.618 257.069 119.867 257.769 119.867 258.64C119.867 259.48 119.618 260.149 119.12 260.647C118.591 261.176 117.907 261.44 117.067 261.44C116.227 261.44 115.558 261.176 115.06 260.647C114.531 260.149 114.267 259.48 114.267 258.64C114.267 257.769 114.531 257.069 115.06 256.54C115.558 256.011 116.227 255.747 117.067 255.747Z" fill="#F3F3F3"/>
</svg>
