<svg width="204" height="306" viewBox="0 0 204 306" fill="none" xmlns="http://www.w3.org/2000/svg">
<path d="M0 30.6C0 13.7001 13.7001 0 30.6 0H173.4C190.3 0 204 13.7001 204 30.6V275.4C204 292.3 190.3 306 173.4 306H30.6C13.7001 306 0 292.3 0 275.4V30.6Z" fill="#171717"/>
<path d="M2.04 32.232C2.04 15.5574 15.4661 2.04 32.028 2.04H171.972C188.534 2.04 201.96 15.5574 201.96 32.232V273.768C201.96 290.443 188.534 303.96 171.972 303.96H32.028C15.4661 303.96 2.04 290.443 2.04 273.768V32.232Z" fill="#F3F3F3"/>
<path d="M17.034 37.264C17.034 26.1476 25.9847 17.136 37.026 17.136H166.974C178.015 17.136 186.966 26.1476 186.966 37.264V268.736C186.966 279.852 178.015 288.864 166.974 288.864H37.026C25.9847 288.864 17.034 279.852 17.034 268.736V37.264Z" fill="#171717"/>
<path d="M183.24 71.2374C207.936 95.9342 191.468 152.444 146.456 197.456C101.444 242.468 44.9342 258.936 20.2374 234.24C-4.45932 209.543 12.0093 153.033 57.0211 108.021C102.033 63.0093 158.543 46.5407 183.24 71.2374Z" fill="#F3F3F3"/>
<path d="M81.2393 156.208H48.3279C43.7838 156.208 39.1597 159.523 37.9996 163.612L21.2659 222.596C20.1059 226.685 22.8492 230 27.3933 230H60.3048C64.8489 230 69.473 226.685 70.6331 222.596L87.3668 163.612C88.5268 159.523 85.7834 156.208 81.2393 156.208Z" fill="#171717"/>
<path d="M80.4846 157.01H48.6276C44.2291 157.01 39.7435 160.253 38.6087 164.253L22.2386 221.955C21.1038 225.955 23.7495 229.198 28.1481 229.198H60.005C64.4036 229.198 68.8892 225.955 70.024 221.955L86.3941 164.253C87.5289 160.253 84.8831 157.01 80.4846 157.01Z" fill="#F3F3F3"/>
<path d="M70.2448 165.031H54.3163C49.9178 165.031 45.4322 168.274 44.2974 172.274L32.4783 213.935C31.3435 217.935 33.9893 221.177 38.3878 221.177H54.3163C58.7148 221.177 63.2005 217.935 64.3353 213.935L76.1543 172.274C77.2891 168.274 74.6433 165.031 70.2448 165.031Z" fill="#55AA55"/>
<path d="M102.743 119.313H69.8313C65.2872 119.313 60.6631 122.627 59.5031 126.716L42.7694 185.7C41.6093 189.789 44.3527 193.104 48.8968 193.104H81.8082C86.3523 193.104 90.9765 189.789 92.1365 185.7L108.87 126.716C110.03 122.627 107.287 119.313 102.743 119.313Z" fill="#171717"/>
<path d="M101.988 120.114H70.1311C65.7325 120.114 61.2469 123.357 60.1121 127.357L43.7421 185.059C42.6072 189.059 45.253 192.302 49.6515 192.302H81.5085C85.907 192.302 90.3927 189.059 91.5275 185.059L107.898 127.357C109.032 123.357 106.387 120.114 101.988 120.114Z" fill="#F3F3F3"/>
<path d="M91.7483 128.136H75.8198C71.4213 128.136 66.9356 131.378 65.8008 135.378L53.9818 177.039C52.847 181.039 55.4928 184.281 59.8913 184.281H75.8198C80.2183 184.281 84.7039 181.039 85.8387 177.039L97.6578 135.378C98.7926 131.378 96.1468 128.136 91.7483 128.136Z" fill="#FF5555"/>
<path d="M177.607 76H144.695C140.151 76 135.527 79.3146 134.367 83.4036L117.633 142.388C116.473 146.477 119.217 149.792 123.761 149.792H156.672C161.216 149.792 165.84 146.477 167 142.388L183.734 83.4036C184.894 79.3146 182.151 76 177.607 76Z" fill="#171717"/>
<path d="M176.852 76.8019H144.995C140.596 76.8019 136.111 80.0445 134.976 84.0445L118.606 141.747C117.471 145.747 120.117 148.99 124.515 148.99H156.372C160.771 148.99 165.257 145.747 166.391 141.747L182.761 84.0445C183.896 80.0445 181.25 76.8019 176.852 76.8019Z" fill="#F3F3F3"/>
<path d="M166.612 84.8229H150.684C146.285 84.8229 141.799 88.0656 140.665 92.0656L128.846 133.726C127.711 137.726 130.357 140.969 134.755 140.969H150.684C155.082 140.969 159.568 137.726 160.703 133.726L172.522 92.0656C173.656 88.0656 171.011 84.8229 166.612 84.8229Z" fill="#FF5555"/>
<path d="M135.396 94.448H102.485C97.9406 94.448 93.3165 97.7626 92.1565 101.852L75.4227 160.836C74.2627 164.925 77.006 168.239 81.5502 168.239H114.462C119.006 168.239 123.63 164.925 124.79 160.836L141.524 101.852C142.684 97.7626 139.94 94.448 135.396 94.448Z" fill="#171717"/>
<path d="M134.641 95.2498H102.784C98.3859 95.2498 93.9003 98.4924 92.7655 102.492L76.3954 160.195C75.2606 164.195 77.9064 167.438 82.3049 167.438H114.162C118.56 167.438 123.046 164.195 124.181 160.195L140.551 102.492C141.686 98.4924 139.04 95.2498 134.641 95.2498Z" fill="#F3F3F3"/>
<path d="M124.402 103.271H108.473C104.075 103.271 99.589 106.514 98.4542 110.514L86.6352 152.174C85.5004 156.174 88.1462 159.417 92.5447 159.417H108.473C112.872 159.417 117.357 156.174 118.492 152.174L130.311 110.514C131.446 106.514 128.8 103.271 124.402 103.271Z" fill="#5555FF"/>
<path d="M125.839 143.375H92.9276C88.3835 143.375 83.7594 146.69 82.5994 150.779L65.8656 209.763C64.7056 213.852 67.449 217.167 71.9931 217.167H104.905C109.449 217.167 114.073 213.852 115.233 209.763L131.967 150.779C133.127 146.69 130.383 143.375 125.839 143.375Z" fill="#171717"/>
<path d="M125.084 144.177H93.2274C88.8288 144.177 84.3432 147.42 83.2084 151.42L66.8383 209.122C65.7035 213.122 68.3493 216.365 72.7478 216.365H104.605C109.003 216.365 113.489 213.122 114.624 209.122L130.994 151.42C132.129 147.42 129.483 144.177 125.084 144.177Z" fill="#F3F3F3"/>
<path d="M114.845 152.198H98.9161C94.5176 152.198 90.0319 155.441 88.8971 159.441L77.0781 201.101C75.9433 205.101 78.5891 208.344 82.9876 208.344H98.9161C103.315 208.344 107.8 205.101 108.935 201.101L120.754 159.441C121.889 155.441 119.243 152.198 114.845 152.198Z" fill="#FFAA00"/>
<path d="M159.289 119.313H126.377C121.833 119.313 117.209 122.627 116.049 126.716L99.3155 185.7C98.1554 189.789 100.899 193.104 105.443 193.104H138.354C142.898 193.104 147.523 189.789 148.683 185.7L165.416 126.716C166.576 122.627 163.833 119.313 159.289 119.313Z" fill="#171717"/>
<path d="M158.534 120.114H126.677C122.279 120.114 117.793 123.357 116.658 127.357L100.288 185.059C99.1534 189.059 101.799 192.302 106.198 192.302H138.055C142.453 192.302 146.939 189.059 148.074 185.059L164.444 127.357C165.578 123.357 162.933 120.114 158.534 120.114Z" fill="#F3F3F3"/>
<path d="M148.294 128.136H132.366C127.967 128.136 123.482 131.378 122.347 135.378L110.528 177.039C109.393 181.039 112.039 184.281 116.437 184.281H132.366C136.764 184.281 141.25 181.039 142.385 177.039L154.204 135.378C155.339 131.378 152.693 128.136 148.294 128.136Z" fill="#55AA55"/>
<path d="M41.2665 66.8987V55.5676H30V50.9189H41.2665V39.5878H46.4573V50.9189H57.7238V55.5676H46.4573V66.8987H41.2665Z" fill="#F3F3F3"/>
<path d="M74.374 73C71.6213 73 69.2029 72.4383 67.1187 71.3149C65.0738 70.1527 63.4811 68.545 62.3407 66.4919C61.2003 64.4387 60.6301 62.0563 60.6301 59.3446C60.6301 57.214 60.925 55.1221 61.5149 53.0689C62.1441 51.0158 63.0682 49.0401 64.2873 47.1419L75.0819 30H80.9806L68.7703 49.2919L69.0062 49.4662C69.7534 48.3815 70.7758 47.5486 72.0736 46.9676C73.3713 46.3865 74.8263 46.0959 76.4386 46.0959C78.798 46.0959 80.8429 46.6383 82.5732 47.723C84.3035 48.8077 85.6405 50.3378 86.5843 52.3135C87.5281 54.2892 88 56.6329 88 59.3446C88 62.0563 87.4298 64.4387 86.2894 66.4919C85.149 68.545 83.5563 70.1527 81.5114 71.3149C79.5059 72.4383 77.1268 73 74.374 73ZM74.315 68.3513C76.8318 68.3513 78.857 67.5378 80.3907 65.9108C81.9244 64.245 82.6912 62.0563 82.6912 59.3446C82.6912 56.6329 81.9244 54.4635 80.3907 52.8365C78.857 51.1707 76.8318 50.3378 74.315 50.3378C71.7983 50.3378 69.7731 51.1707 68.2394 52.8365C66.7057 54.4635 65.9389 56.6329 65.9389 59.3446C65.9389 62.0563 66.7057 64.245 68.2394 65.9108C69.7731 67.5378 71.7983 68.3513 74.315 68.3513Z" fill="#F3F3F3"/>
<path d="M162.734 239.101V250.432H174V255.081H162.734V266.412H157.543V255.081H146.276V250.432H157.543V239.101H162.734Z" fill="#F3F3F3"/>
<path d="M129.626 233C132.379 233 134.797 233.562 136.881 234.685C138.926 235.847 140.519 237.455 141.659 239.508C142.8 241.561 143.37 243.944 143.37 246.655C143.37 248.786 143.075 250.878 142.485 252.931C141.856 254.984 140.932 256.96 139.713 258.858L128.918 276H123.019L135.23 256.708L134.994 256.534C134.247 257.618 133.224 258.451 131.926 259.032C130.629 259.614 129.174 259.904 127.561 259.904C125.202 259.904 123.157 259.362 121.427 258.277C119.697 257.192 118.359 255.662 117.416 253.686C116.472 251.711 116 249.367 116 246.655C116 243.944 116.57 241.561 117.711 239.508C118.851 237.455 120.444 235.847 122.489 234.685C124.494 233.562 126.873 233 129.626 233ZM129.685 237.649C127.168 237.649 125.143 238.462 123.609 240.089C122.076 241.755 121.309 243.944 121.309 246.655C121.309 249.367 122.076 251.536 123.609 253.164C125.143 254.829 127.168 255.662 129.685 255.662C132.202 255.662 134.227 254.829 135.761 253.164C137.294 251.536 138.061 249.367 138.061 246.655C138.061 243.944 137.294 241.755 135.761 240.089C134.227 238.462 132.202 237.649 129.685 237.649Z" fill="#F3F3F3"/>
</svg>
