<svg width="204" height="306" viewBox="0 0 204 306" fill="none" xmlns="http://www.w3.org/2000/svg">
<path d="M0 30.6C0 13.7001 13.7001 0 30.6 0H173.4C190.3 0 204 13.7001 204 30.6V275.4C204 292.3 190.3 306 173.4 306H30.6C13.7001 306 0 292.3 0 275.4V30.6Z" fill="#171717"/>
<path d="M2.04 32.232C2.04 15.5574 15.4661 2.04 32.028 2.04H171.972C188.534 2.04 201.96 15.5574 201.96 32.232V273.768C201.96 290.443 188.534 303.96 171.972 303.96H32.028C15.4661 303.96 2.04 290.443 2.04 273.768V32.232Z" fill="#F3F3F3"/>
<path d="M17.034 37.264C17.034 26.1476 25.9847 17.136 37.026 17.136H166.974C178.015 17.136 186.966 26.1476 186.966 37.264V268.736C186.966 279.852 178.015 288.864 166.974 288.864H37.026C25.9847 288.864 17.034 279.852 17.034 268.736V37.264Z" fill="#FFAA00"/>
<path d="M183.24 71.2374C207.936 95.9342 191.468 152.444 146.456 197.456C101.444 242.468 44.9342 258.936 20.2374 234.24C-4.45932 209.543 12.0093 153.033 57.0211 108.021C102.033 63.0093 158.543 46.5407 183.24 71.2374Z" fill="#F3F3F3"/>
<path d="M101.13 116.922H67.7319C63.1206 116.922 58.4282 120.244 57.251 124.342L40.2698 183.462C39.0927 187.56 41.8765 190.882 46.4879 190.882H79.8859C84.4972 190.882 89.1897 187.56 90.3669 183.462L107.348 124.342C108.525 120.244 105.741 116.922 101.13 116.922Z" fill="#171717"/>
<path d="M100.364 117.725H68.0361C63.5725 117.725 59.0206 120.975 57.869 124.985L41.2569 182.819C40.1053 186.828 42.7902 190.079 47.2537 190.079H79.5817C84.0453 190.079 88.5973 186.828 89.7489 182.819L106.361 124.985C107.513 120.975 104.828 117.725 100.364 117.725Z" fill="#F3F3F3"/>
<path d="M89.9729 125.765H73.8089C69.3454 125.765 64.7934 129.015 63.6418 133.024L51.648 174.78C50.4965 178.789 53.1814 182.039 57.6449 182.039H73.8089C78.2724 182.039 82.8244 178.789 83.976 174.78L95.9698 133.024C97.1214 129.015 94.4364 125.765 89.9729 125.765Z" fill="#FFAA00"/>
<path d="M134.266 92H100.868C96.2568 92 91.5643 95.3222 90.3871 99.4205L73.406 158.54C72.2288 162.638 75.0127 165.961 79.624 165.961H113.022C117.633 165.961 122.326 162.638 123.503 158.54L140.484 99.4205C141.661 95.3222 138.877 92 134.266 92Z" fill="#171717"/>
<path d="M133.5 92.8037H101.172C96.7087 92.8037 92.1567 96.0538 91.0052 100.063L74.3931 157.897C73.2415 161.907 75.9264 165.157 80.3899 165.157H112.718C117.181 165.157 121.733 161.907 122.885 157.897L139.497 100.063C140.649 96.0538 137.964 92.8037 133.5 92.8037Z" fill="#F3F3F3"/>
<path d="M123.109 100.843H106.945C102.482 100.843 97.9296 104.093 96.778 108.102L84.7842 149.858C83.6326 153.868 86.3175 157.118 90.7811 157.118H106.945C111.409 157.118 115.961 153.868 117.112 149.858L129.106 108.102C130.258 104.093 127.573 100.843 123.109 100.843Z" fill="#FFAA00"/>
<path d="M124.568 141.039H91.1697C86.5584 141.039 81.8659 144.362 80.6888 148.46L63.7076 207.579C62.5304 211.678 65.3143 215 69.9256 215H103.324C107.935 215 112.627 211.678 113.805 207.579L130.786 148.46C131.963 144.362 129.179 141.039 124.568 141.039Z" fill="#171717"/>
<path d="M123.802 141.843H91.4739C87.0103 141.843 82.4584 145.093 81.3068 149.102L64.6947 206.937C63.5431 210.946 66.228 214.196 70.6915 214.196H103.019C107.483 214.196 112.035 210.946 113.187 206.937L129.799 149.102C130.95 145.093 128.265 141.843 123.802 141.843Z" fill="#F3F3F3"/>
<path d="M113.411 149.882H97.2467C92.7832 149.882 88.2312 153.133 87.0796 157.142L75.0858 198.898C73.9342 202.907 76.6191 206.157 81.0827 206.157H97.2467C101.71 206.157 106.262 202.907 107.414 198.898L119.408 157.142C120.559 153.133 117.874 149.882 113.411 149.882Z" fill="#FFAA00"/>
<path d="M158.512 116.922H125.114C120.503 116.922 115.81 120.244 114.633 124.342L97.652 183.462C96.4748 187.56 99.2587 190.882 103.87 190.882H137.268C141.879 190.882 146.572 187.56 147.749 183.462L164.73 124.342C165.907 120.244 163.123 116.922 158.512 116.922Z" fill="#171717"/>
<path d="M157.746 117.725H125.418C120.955 117.725 116.403 120.975 115.251 124.985L98.6391 182.819C97.4875 186.828 100.172 190.079 104.636 190.079H136.964C141.427 190.079 145.979 186.828 147.131 182.819L163.743 124.985C164.895 120.975 162.21 117.725 157.746 117.725Z" fill="#F3F3F3"/>
<path d="M147.355 125.765H131.191C126.728 125.765 122.176 129.015 121.024 133.024L109.03 174.78C107.879 178.789 110.564 182.039 115.027 182.039H131.191C135.655 182.039 140.207 178.789 141.358 174.78L153.352 133.024C154.504 129.015 151.819 125.765 147.355 125.765Z" fill="#FFAA00"/>
<path d="M66.5789 30L53.684 56.3158V62.8947H69.4736V69.4737H76.0526V62.8947H80V56.3158H76.0526V43.1579H69.4736V56.3158H60.5261L73.421 30H66.5789Z" fill="#F3F3F3"/>
<path fill-rule="evenodd" clip-rule="evenodd" d="M36.579 43.158V49.737H30V56.3158H36.579V62.8949H43.158V56.3158H49.737V49.737H43.158V43.158H36.579Z" fill="#F3F3F3"/>
<path d="M137.421 276.004L150.316 249.688V243.109H134.526V236.53H127.947V243.109H124V249.688H127.947V262.846H134.526V249.688H143.474L130.579 276.004H137.421Z" fill="#F3F3F3"/>
<path fill-rule="evenodd" clip-rule="evenodd" d="M167.421 262.846V256.267H174V249.688H167.421V243.109H160.842V249.688H154.263V256.267H160.842V262.846H167.421Z" fill="#F3F3F3"/>
</svg>
