<svg width="204" height="306" viewBox="0 0 204 306" fill="none" xmlns="http://www.w3.org/2000/svg">
<path d="M0 30.6C0 13.7001 13.7001 0 30.6 0H173.4C190.3 0 204 13.7001 204 30.6V275.4C204 292.3 190.3 306 173.4 306H30.6C13.7001 306 0 292.3 0 275.4V30.6Z" fill="#171717"/>
<path d="M2.04 32.232C2.04 15.5574 15.4661 2.04 32.028 2.04H171.972C188.534 2.04 201.96 15.5574 201.96 32.232V273.768C201.96 290.443 188.534 303.96 171.972 303.96H32.028C15.4661 303.96 2.04 290.443 2.04 273.768V32.232Z" fill="#F3F3F3"/>
<path d="M17.034 37.264C17.034 26.1476 25.9847 17.136 37.026 17.136H166.974C178.015 17.136 186.966 26.1476 186.966 37.264V268.736C186.966 279.852 178.015 288.864 166.974 288.864H37.026C25.9847 288.864 17.034 279.852 17.034 268.736V37.264Z" fill="#FFAA00"/>
<path d="M183.24 71.2374C207.936 95.9342 191.468 152.444 146.456 197.456C101.444 242.468 44.9342 258.936 20.2374 234.24C-4.45932 209.543 12.0093 153.033 57.0211 108.021C102.033 63.0093 158.543 46.5407 183.24 71.2374Z" fill="#F3F3F3"/>
<path d="M85.6961 201.93L116.478 152.61L115.884 152.164C114 154.937 111.422 157.067 108.151 158.552C104.879 160.038 101.211 160.781 97.1466 160.781C91.2974 160.781 86.1422 159.394 81.681 156.621C77.319 153.848 73.9483 149.936 71.569 144.885C69.1897 139.735 68 133.744 68 126.91C68 119.879 69.4375 113.788 72.3125 108.638C75.1875 103.389 79.2026 99.3287 84.3578 96.4566C89.5129 93.4855 95.5108 92 102.351 92C109.291 92 115.338 93.4855 120.494 96.4566C125.748 99.3287 129.812 103.389 132.688 108.638C135.562 113.788 137 119.879 137 126.91C137 132.357 136.207 137.705 134.621 142.954C133.134 148.203 130.853 153.254 127.78 158.107L100.567 201.93H85.6961ZM102.5 149.936C108.845 149.936 113.95 147.856 117.817 143.697C121.683 139.438 123.616 133.843 123.616 126.91C123.616 119.978 121.683 114.432 117.817 110.272C113.95 106.014 108.845 103.884 102.5 103.884C96.1552 103.884 91.0496 106.014 87.1832 110.272C83.3168 114.432 81.3836 119.978 81.3836 126.91C81.3836 133.843 83.3168 139.438 87.1832 143.697C91.0496 147.856 96.1552 149.936 102.5 149.936Z" fill="#FFAA00"/>
<path d="M81.3836 206.572H117.817V214H81.3835L81.3836 206.572Z" fill="#FFAA00"/>
<path d="M38.7198 84.0639L53.8879 59.8082L53.5948 59.589C52.6667 60.9528 51.3966 62 49.7845 62.7306C48.1724 63.4612 46.3649 63.8265 44.3621 63.8265C41.4799 63.8265 38.9397 63.1446 36.7414 61.7808C34.592 60.4171 32.931 58.4932 31.7586 56.0091C30.5862 53.4764 30 50.5297 30 47.169C30 43.7108 30.7083 40.7154 32.125 38.1826C33.5417 35.6012 35.5201 33.6043 38.0603 32.1918C40.6006 30.7306 43.556 30 46.9267 30C50.3463 30 53.3262 30.7306 55.8664 32.1918C58.4555 33.6043 60.4583 35.6012 61.875 38.1826C63.2917 40.7154 64 43.7108 64 47.169C64 49.8478 63.6092 52.4779 62.8276 55.0594C62.0948 57.6408 60.9713 60.1248 59.4569 62.5114L46.0474 84.0639H38.7198ZM47 58.4932C50.1264 58.4932 52.6422 57.4703 54.5474 55.4247C56.4526 53.3303 57.4052 50.5784 57.4052 47.169C57.4052 43.7595 56.4526 41.032 54.5474 38.9863C52.6422 36.8919 50.1264 35.8447 47 35.8447C43.8736 35.8447 41.3578 36.8919 39.4526 38.9863C37.5474 41.032 36.5948 43.7595 36.5948 47.169C36.5948 50.5784 37.5474 53.3303 39.4526 55.4247C41.3578 57.4703 43.8736 58.4932 47 58.4932Z" fill="#F3F3F3"/>
<path d="M36.5948 86.347H54.5474V90H36.5948L36.5948 86.347Z" fill="#F3F3F3"/>
<path d="M165.297 221.936L150.158 246.192L150.451 246.411C151.377 245.047 152.645 244 154.254 243.269C155.863 242.539 157.667 242.174 159.666 242.174C162.542 242.174 165.078 242.855 167.272 244.219C169.417 245.583 171.075 247.507 172.245 249.991C173.415 252.524 174 255.47 174 258.831C174 262.289 173.293 265.285 171.879 267.817C170.465 270.399 168.491 272.396 165.955 273.808C163.42 275.269 160.47 276 157.106 276C153.693 276 150.719 275.269 148.184 273.808C145.599 272.396 143.6 270.399 142.186 267.817C140.773 265.285 140.066 262.289 140.066 258.831C140.066 256.152 140.456 253.522 141.236 250.941C141.967 248.359 143.088 245.875 144.6 243.489L157.984 221.936H165.297ZM157.033 247.507C153.912 247.507 151.401 248.53 149.5 250.575C147.598 252.67 146.648 255.422 146.648 258.831C146.648 262.241 147.598 264.968 149.5 267.014C151.401 269.108 153.912 270.155 157.033 270.155C160.153 270.155 162.664 269.108 164.566 267.014C166.467 264.968 167.418 262.241 167.418 258.831C167.418 255.422 166.467 252.67 164.566 250.575C162.664 248.53 160.153 247.507 157.033 247.507Z" fill="#F3F3F3"/>
<path d="M167.418 219.653H149.5V216H167.418L167.418 219.653Z" fill="#F3F3F3"/>
</svg>
