<svg width="204" height="306" viewBox="0 0 204 306" fill="none" xmlns="http://www.w3.org/2000/svg">
<path d="M0 30.6C0 13.7001 13.7001 0 30.6 0H173.4C190.3 0 204 13.7001 204 30.6V275.4C204 292.3 190.3 306 173.4 306H30.6C13.7001 306 0 292.3 0 275.4V30.6Z" fill="#171717"/>
<path d="M2.04 32.232C2.04 15.5574 15.4661 2.04 32.028 2.04H171.972C188.534 2.04 201.96 15.5574 201.96 32.232V273.768C201.96 290.443 188.534 303.96 171.972 303.96H32.028C15.4661 303.96 2.04 290.443 2.04 273.768V32.232Z" fill="#F3F3F3"/>
<path d="M17.034 37.264C17.034 26.1476 25.9847 17.136 37.026 17.136H166.974C178.015 17.136 186.966 26.1476 186.966 37.264V268.736C186.966 279.852 178.015 288.864 166.974 288.864H37.026C25.9847 288.864 17.034 279.852 17.034 268.736V37.264Z" fill="#FFAA00"/>
<path d="M183.24 71.2374C207.936 95.9342 191.468 152.444 146.456 197.456C101.444 242.468 44.9342 258.936 20.2374 234.24C-4.45932 209.543 12.0093 153.033 57.0211 108.021C102.033 63.0093 158.543 46.5407 183.24 71.2374Z" fill="#F3F3F3"/>
<path d="M102.15 205.017C95.15 205.017 89 203.462 83.7 200.353C78.5 197.136 74.45 192.687 71.55 187.004C68.65 181.321 67.2 174.727 67.2 167.221C67.2 161.324 67.95 155.534 69.45 149.851C71.05 144.168 73.4 138.7 76.5 133.446L103.95 86H118.95L87.9 139.397L88.5 139.879C90.4 136.877 93 134.572 96.3 132.964C99.6 131.355 103.3 130.551 107.4 130.551C113.4 130.551 118.6 132.052 123 135.054C127.4 138.057 130.8 142.292 133.2 147.76C135.6 153.229 136.8 159.716 136.8 167.221C136.8 174.727 135.35 181.321 132.45 187.004C129.55 192.687 125.5 197.136 120.3 200.353C115.2 203.462 109.15 205.017 102.15 205.017ZM102 192.15C108.4 192.15 113.55 189.899 117.45 185.395C121.35 180.785 123.3 174.727 123.3 167.221C123.3 159.716 121.35 153.711 117.45 149.208C113.55 144.597 108.4 142.292 102 142.292C95.6 142.292 90.45 144.597 86.55 149.208C82.65 153.711 80.7 159.716 80.7 167.221C80.7 174.727 82.65 180.785 86.55 185.395C90.45 189.899 95.6 192.15 102 192.15Z" fill="#FFAA00"/>
<path d="M83.7 208.937H117.45V216.979H83.7L83.7 208.937Z" fill="#FFAA00"/>
<path d="M45.8681 84.0365C42.6899 84.0365 39.8977 83.3307 37.4914 81.9189C35.1305 80.4584 33.2917 78.4382 31.975 75.858C30.6583 73.2779 30 70.284 30 66.8763C30 64.1988 30.3405 61.57 31.0216 58.9899C31.748 56.4097 32.8149 53.927 34.2224 51.5416L46.6853 30H53.4957L39.3983 54.2434L39.6707 54.4625C40.5333 53.0994 41.7138 52.0527 43.2121 51.3225C44.7103 50.5923 46.3902 50.2272 48.2517 50.2272C50.9759 50.2272 53.3368 50.9087 55.3345 52.2718C57.3322 53.6349 58.8759 55.5578 59.9655 58.0406C61.0552 60.5233 61.6 63.4686 61.6 66.8763C61.6 70.284 60.9417 73.2779 59.625 75.858C58.3083 78.4382 56.4695 80.4584 54.1086 81.9189C51.7931 83.3307 49.0463 84.0365 45.8681 84.0365ZM45.8 78.1947C48.7057 78.1947 51.044 77.1724 52.8147 75.1278C54.5853 73.0345 55.4707 70.284 55.4707 66.8763C55.4707 63.4686 54.5853 60.7424 52.8147 58.6978C51.044 56.6045 48.7057 55.5578 45.8 55.5578C42.8942 55.5578 40.556 56.6045 38.7853 58.6978C37.0147 60.7424 36.1293 63.4686 36.1293 66.8763C36.1293 70.284 37.0147 73.0345 38.7853 75.1278C40.556 77.1724 42.8942 78.1947 45.8 78.1947Z" fill="#F3F3F3"/>
<path d="M37.4914 85.8164H52.8147V89.4675H37.4914L37.4914 85.8164Z" fill="#F3F3F3"/>
<path d="M157.732 222.431C160.91 222.431 163.702 223.137 166.109 224.549C168.47 226.009 170.308 228.029 171.625 230.609C172.942 233.19 173.6 236.184 173.6 239.591C173.6 242.269 173.259 244.898 172.578 247.478C171.852 250.058 170.785 252.541 169.378 254.926L156.915 276.468H150.104L164.202 252.224L163.929 252.005C163.067 253.368 161.886 254.415 160.388 255.145C158.89 255.875 157.21 256.24 155.348 256.24C152.624 256.24 150.263 255.559 148.265 254.196C146.268 252.833 144.724 250.91 143.634 248.427C142.545 245.944 142 242.999 142 239.591C142 236.184 142.658 233.19 143.975 230.609C145.292 228.029 147.13 226.009 149.491 224.549C151.807 223.137 154.554 222.431 157.732 222.431ZM157.8 228.273C154.894 228.273 152.556 229.295 150.785 231.34C149.015 233.433 148.129 236.184 148.129 239.591C148.129 242.999 149.015 245.725 150.785 247.77C152.556 249.863 154.894 250.91 157.8 250.91C160.706 250.91 163.044 249.863 164.815 247.77C166.585 245.725 167.471 242.999 167.471 239.591C167.471 236.184 166.585 233.433 164.815 231.34C163.044 229.295 160.706 228.273 157.8 228.273Z" fill="#F3F3F3"/>
<path d="M166.109 220.651H150.785V217H166.109V220.651Z" fill="#F3F3F3"/>
</svg>
