<svg width="204" height="306" viewBox="0 0 204 306" fill="none" xmlns="http://www.w3.org/2000/svg">
<path d="M0 30.6C0 13.7001 13.7001 0 30.6 0H173.4C190.3 0 204 13.7001 204 30.6V275.4C204 292.3 190.3 306 173.4 306H30.6C13.7001 306 0 292.3 0 275.4V30.6Z" fill="#171717"/>
<path d="M2.04 32.232C2.04 15.5574 15.4661 2.04 32.028 2.04H171.972C188.534 2.04 201.96 15.5574 201.96 32.232V273.768C201.96 290.443 188.534 303.96 171.972 303.96H32.028C15.4661 303.96 2.04 290.443 2.04 273.768V32.232Z" fill="#F3F3F3"/>
<path d="M17.034 37.264C17.034 26.1476 25.9847 17.136 37.026 17.136H166.974C178.015 17.136 186.966 26.1476 186.966 37.264V268.736C186.966 279.852 178.015 288.864 166.974 288.864H37.026C25.9847 288.864 17.034 279.852 17.034 268.736V37.264Z" fill="#FFAA00"/>
<path d="M183.24 71.2374C207.936 95.9342 191.468 152.444 146.456 197.456C101.444 242.468 44.9342 258.936 20.2374 234.24C-4.45932 209.543 12.0093 153.033 57.0211 108.021C102.033 63.0093 158.543 46.5407 183.24 71.2374Z" fill="#F3F3F3"/>
<path d="M103.218 209V180.516H65V164.071L102.305 98H124.687V164.071H139L137.173 180.516H124.687V207.238L103.218 209ZM82.8148 164.071H103.218V125.456L82.8148 164.071Z" fill="#FFAA00"/>
<path d="M47.5597 81V67.9127H30V60.3571L47.1399 30H57.4239V60.3571H64L63.1605 67.9127H57.4239V80.1905L47.5597 81ZM38.1852 60.3571H47.5597V42.6151L38.1852 60.3571Z" fill="#F3F3F3"/>
<path d="M156.44 225V238.087H174V245.643L156.86 276H146.576V245.643H140L140.84 238.087H146.576V225.81L156.44 225ZM165.815 245.643H156.44V263.385L165.815 245.643Z" fill="#F3F3F3"/>
</svg>
