<svg width="204" height="306" viewBox="0 0 204 306" fill="none" xmlns="http://www.w3.org/2000/svg">
<path d="M0 30.6C0 13.7001 13.7001 0 30.6 0H173.4C190.3 0 204 13.7001 204 30.6V275.4C204 292.3 190.3 306 173.4 306H30.6C13.7001 306 0 292.3 0 275.4V30.6Z" fill="#171717"/>
<path d="M2.04 32.232C2.04 15.5574 15.4661 2.04 32.028 2.04H171.972C188.534 2.04 201.96 15.5574 201.96 32.232V273.768C201.96 290.443 188.534 303.96 171.972 303.96H32.028C15.4661 303.96 2.04 290.443 2.04 273.768V32.232Z" fill="#F3F3F3"/>
<path d="M17.034 37.264C17.034 26.1476 25.9847 17.136 37.026 17.136H166.974C178.015 17.136 186.966 26.1476 186.966 37.264V268.736C186.966 279.852 178.015 288.864 166.974 288.864H37.026C25.9847 288.864 17.034 279.852 17.034 268.736V37.264Z" fill="#FFAA00"/>
<path d="M183.24 71.2374C207.936 95.9342 191.468 152.444 146.456 197.456C101.444 242.468 44.9342 258.936 20.2374 234.24C-4.45932 209.543 12.0093 153.033 57.0211 108.021C102.033 63.0093 158.543 46.5407 183.24 71.2374Z" fill="#F3F3F3"/>
<path d="M101.931 206C94.6585 206 88.0765 203.873 82.1849 199.618C76.3853 195.271 72.657 189.166 71 181.304L86.6036 175.476C87.248 179.176 88.905 182.46 91.5746 185.327C94.3363 188.195 97.6503 189.628 101.517 189.628C105.475 189.628 108.605 187.825 110.906 184.217C113.208 180.61 114.359 176.401 114.359 171.592C114.359 166.689 113.116 162.527 110.63 159.105C108.145 155.59 104.509 153.832 99.7216 153.832C97.5123 153.832 95.395 154.387 93.3697 155.497C91.3445 156.607 89.5494 158.318 87.9844 160.631L74.1759 156.052L79.9755 100H128.167L126.51 116.233H95.1648L91.9889 140.513C96.8679 138.663 101.563 137.738 106.073 137.738C111.137 137.738 115.693 139.218 119.744 142.178C123.886 145.138 127.108 149.115 129.41 154.11C131.803 159.105 133 164.516 133 170.343C133 177.095 131.665 183.2 128.996 188.657C126.326 194.022 122.598 198.277 117.811 201.421C113.116 204.474 107.823 206 101.931 206Z" fill="#FFAA00"/>
<path d="M45.9644 84C42.2108 84 38.8137 82.8962 35.7728 80.6885C32.7795 78.4328 30.8552 75.2653 30 71.1859L38.0535 68.1623C38.386 70.082 39.2413 71.7858 40.6192 73.2736C42.0445 74.7613 43.755 75.5052 45.7506 75.5052C47.7936 75.5052 49.4091 74.5694 50.5969 72.6976C51.7847 70.8259 52.3786 68.6422 52.3786 66.1466C52.3786 63.603 51.7372 61.4433 50.4543 59.6675C49.1715 57.8438 47.2947 56.9319 44.8241 56.9319C43.6837 56.9319 42.5909 57.2199 41.5457 57.7958C40.5004 58.3717 39.5739 59.2596 38.7661 60.4594L31.6392 58.0838L34.6325 29H59.5056L58.6503 37.4228H42.4722L40.833 50.0209C43.3512 49.0611 45.7743 48.5812 48.1025 48.5812C50.7157 48.5812 53.0676 49.349 55.1581 50.8848C57.2962 52.4206 58.9592 54.4843 60.147 57.0759C61.3823 59.6675 62 62.4751 62 65.4987C62 69.0022 61.3111 72.1697 59.9332 75.0013C58.5553 77.7849 56.631 79.9926 54.1604 81.6243C51.7372 83.2081 49.0052 84 45.9644 84Z" fill="#F3F3F3"/>
<path d="M157.994 221C161.757 221 165.163 222.104 168.212 224.312C171.213 226.567 173.143 229.735 174 233.814L165.926 236.838C165.592 234.918 164.735 233.214 163.353 231.726C161.924 230.239 160.209 229.495 158.208 229.495C156.16 229.495 154.54 230.431 153.349 232.302C152.159 234.174 151.563 236.358 151.563 238.853C151.563 241.397 152.206 243.557 153.492 245.332C154.779 247.156 156.66 248.068 159.137 248.068C160.281 248.068 161.376 247.78 162.424 247.204C163.472 246.628 164.401 245.74 165.211 244.541L172.357 246.916L169.355 276H144.418L145.275 267.577H161.495L163.139 254.979C160.614 255.939 158.185 256.419 155.85 256.419C153.23 256.419 150.872 255.651 148.776 254.115C146.633 252.579 144.965 250.516 143.774 247.924C142.536 245.332 141.917 242.525 141.917 239.501C141.917 235.998 142.607 232.83 143.989 229.999C145.37 227.215 147.3 225.007 149.777 223.376C152.206 221.792 154.945 221 157.994 221Z" fill="#F3F3F3"/>
</svg>
