<svg width="204" height="306" viewBox="0 0 204 306" fill="none" xmlns="http://www.w3.org/2000/svg">
<path d="M0 30.6C0 13.7001 13.7001 0 30.6 0H173.4C190.3 0 204 13.7001 204 30.6V275.4C204 292.3 190.3 306 173.4 306H30.6C13.7001 306 0 292.3 0 275.4V30.6Z" fill="#171717"/>
<path d="M2.04 32.232C2.04 15.5574 15.4661 2.04 32.028 2.04H171.972C188.534 2.04 201.96 15.5574 201.96 32.232V273.768C201.96 290.443 188.534 303.96 171.972 303.96H32.028C15.4661 303.96 2.04 290.443 2.04 273.768V32.232Z" fill="#F3F3F3"/>
<path d="M17.034 37.264C17.034 26.1476 25.9847 17.136 37.026 17.136H166.974C178.015 17.136 186.966 26.1476 186.966 37.264V268.736C186.966 279.852 178.015 288.864 166.974 288.864H37.026C25.9847 288.864 17.034 279.852 17.034 268.736V37.264Z" fill="#FFAA00"/>
<path d="M183.24 71.2374C207.936 95.9342 191.468 152.444 146.456 197.456C101.444 242.468 44.9342 258.936 20.2374 234.24C-4.45932 209.543 12.0093 153.033 57.0211 108.021C102.033 63.0093 158.543 46.5407 183.24 71.2374Z" fill="#F3F3F3"/>
<path fill-rule="evenodd" clip-rule="evenodd" d="M102.112 99.0002C88.2951 98.9822 74.4254 104.219 63.8695 114.749C42.7576 135.808 42.7003 170.015 63.7572 191.129C84.8141 212.243 119.019 212.3 140.131 191.241C161.242 170.183 161.3 135.975 140.243 114.861C129.714 104.304 115.93 99.0183 102.112 99.0002ZM102 116.999C108.299 117.006 114.626 118.655 120.222 121.948L70.9559 171.218C62.8201 157.404 64.7045 139.306 76.5798 127.46C83.6171 120.44 92.7886 116.987 102 116.999ZM133.044 134.659C141.236 148.485 139.319 166.661 127.42 178.53C115.533 190.388 97.4636 192.131 83.666 183.93L133.044 134.659Z" fill="#FFAA00"/>
<path fill-rule="evenodd" clip-rule="evenodd" d="M58.0583 30.0001C50.8938 29.9908 43.7021 32.7064 38.2286 38.166C27.2817 49.0854 27.252 66.8227 38.1704 77.7706C49.0888 88.7185 66.8245 88.7482 77.7714 77.8288C88.7183 66.9095 88.748 49.1721 77.8296 38.2242C72.3704 32.7503 65.2227 30.0095 58.0583 30.0001ZM58.0001 39.3326C61.2659 39.3363 64.5466 40.1913 67.4483 41.899L41.9031 67.4466C37.6845 60.2834 38.6616 50.8992 44.8192 44.7571C48.4681 41.1173 53.2237 39.3264 58.0001 39.3326ZM74.0971 48.49C78.3447 55.6587 77.3508 65.0835 71.1809 71.2379C65.017 77.3863 55.6478 78.29 48.4935 74.0376L74.0971 48.49Z" fill="#F3F3F3"/>
<path fill-rule="evenodd" clip-rule="evenodd" d="M146.058 220C138.894 219.991 131.702 222.706 126.229 228.166C115.282 239.085 115.252 256.823 126.17 267.771C137.089 278.719 154.824 278.748 165.771 267.829C176.718 256.909 176.748 239.172 165.83 228.224C160.37 222.75 153.223 220.009 146.058 220ZM146 229.333C149.266 229.336 152.547 230.191 155.448 231.899L129.903 257.447C125.685 250.283 126.662 240.899 132.819 234.757C136.468 231.117 141.224 229.326 146 229.333ZM162.097 238.49C166.345 245.659 165.351 255.084 159.181 261.238C153.017 267.386 143.648 268.29 136.493 264.038L162.097 238.49Z" fill="#F3F3F3"/>
</svg>
